<svg width="1099" height="184" viewBox="0 0 1099 184" fill="none" xmlns="http://www.w3.org/2000/svg">
<mask id="mask0_79_665" style="mask-type:alpha" maskUnits="userSpaceOnUse" x="0" y="0" width="1099" height="184">
<rect x="0.948486" y="0.294037" width="1097.17" height="183.3" fill="black"/>
</mask>
<g mask="url(#mask0_79_665)">
<mask id="mask1_79_665" style="mask-type:alpha" maskUnits="userSpaceOnUse" x="-50" y="-362" width="483" height="512">
<path opacity="0.5" d="M414.117 -193.5C412.39 -194.495 410.912 -195.922 409.899 -197.655C380.784 -242.883 350.177 -272.591 307.209 -297.353C264.458 -321.991 218.006 -335.255 169.366 -336.273C162.563 -336.458 157.208 -342.131 157.177 -349.045C157.362 -355.835 163.169 -361.397 169.972 -361.212C222.723 -359.836 273.253 -345.659 319.675 -318.905C365.666 -292.401 399.968 -259.127 430.926 -211.112C434.703 -205.2 432.907 -197.614 427.108 -194.059C422.921 -191.3 418.003 -191.26 414.117 -193.5ZM39.6912 -258.413C37.532 -259.657 35.7468 -261.548 34.5515 -263.961C31.58 -270.272 34.3648 -277.575 40.6867 -280.541C79.5151 -298.396 120.433 -306.425 162.42 -304.355C250.413 -300.198 337.337 -250.392 385.156 -176.28C407.945 -141.02 421.563 -101.849 425.611 -59.5723C426.323 -52.8398 421.254 -46.5652 414.294 -45.9788C407.333 -45.3923 401.263 -50.3274 400.675 -57.2754C396.95 -95.6305 384.677 -131.153 364.129 -162.823C320.486 -230.217 241.244 -275.884 161.042 -279.574C122.95 -281.41 85.8697 -274.043 50.7299 -258.086C47.2573 -256.064 43.1459 -256.422 39.6912 -258.413ZM24.1749 79.496C21.368 77.8783 19.1843 75.183 18.4877 71.9079C10.5483 42.3316 7.38108 24.4138 7.99848 -10.0017C8.43336 -45.0971 19.3594 -81.9054 39.4297 -116.605C76.4539 -180.616 161.465 -201.167 228.831 -162.343C296.198 -123.52 320.873 -39.7573 283.849 24.2535C280.359 30.2882 272.866 32.2922 266.82 28.8081C260.774 25.324 258.767 17.8449 262.257 11.8102C292.425 -40.3468 271.856 -108.812 216.365 -140.791C160.874 -172.77 91.1894 -156.319 61.0215 -104.162C43.0704 -73.126 33.4 -40.4793 33.1077 -9.61225C32.5905 23.1368 35.9825 39.1726 42.8847 65.5649C44.4939 72.2396 40.6295 78.9208 34.0338 80.8671C30.4121 81.6536 26.9818 81.1136 24.1749 79.496ZM202.05 128.843C176.356 114.035 157.425 94.5037 146.211 71.0865C126.629 30.7779 127.857 -15.6426 149.548 -53.1439C153.038 -59.1786 160.531 -61.1826 166.577 -57.6985C172.623 -54.2144 174.63 -46.7353 171.14 -40.7006C153.563 -10.3116 152.529 27.3123 168.649 60.1662C177.995 79.3461 193.049 94.6312 214.641 107.075C219.823 110.061 228.834 114.392 238.343 117.86C244.796 120.142 248.166 127.257 245.755 133.914C243.469 140.355 236.341 143.719 229.672 141.313C215.994 136.591 205.073 130.585 202.05 128.843ZM132.971 148.229C132.107 147.732 131.152 146.894 130.413 146.181C101.567 116.913 86.4668 91.2558 76.2704 54.6315C63.3696 7.25289 69.8061 -42.2005 94.4889 -84.8744C114.684 -119.789 160.936 -131.067 197.642 -109.913C234.348 -88.7596 247.689 -43.1385 227.494 -8.22354C214.156 14.8376 223.391 45.1605 248.221 59.4704C273.052 73.7802 303.978 66.6018 317.316 43.5407C364.313 -37.7121 332.286 -144.103 245.919 -193.877C184.598 -229.216 108.763 -227.516 52.9587 -189.271C34.4404 -176.666 18.2793 -158.68 5.31463 -136.265C-4.40889 -119.454 -18.2307 -92.0738 -25.2213 -50.1239C-26.3033 -43.2759 -32.7254 -38.6433 -39.4612 -39.9389C-46.3217 -41.0189 -50.8381 -47.6448 -49.6648 -54.1528C-43.9143 -88.4838 -32.8904 -119.488 -16.0613 -148.584C-1.10203 -174.447 17.4521 -195.077 39.0111 -209.953C102.509 -253.534 188.768 -255.837 258.51 -215.645C356.752 -159.028 392.886 -37.3382 339.033 55.7685C318.838 90.6835 272.586 101.961 235.88 80.8073C199.174 59.6536 185.832 14.0326 206.027 -20.8824C219.366 -43.9435 210.131 -74.2665 185.3 -88.5763C160.47 -102.886 129.544 -95.7077 116.205 -72.6466C94.8884 -35.7919 89.1933 6.90465 100.36 47.824C109.154 79.9045 122.321 102.435 147.903 128.386C152.86 133.254 152.609 141.155 147.856 145.888C143.909 150.223 137.505 150.843 132.971 148.229Z" fill="url(#paint0_linear_79_665)"/>
</mask>
<g mask="url(#mask1_79_665)">
<rect x="-1.8429" y="0.294037" width="1097.17" height="140.773" fill="#D9D9D9"/>
</g>
</g>
<defs>
<linearGradient id="paint0_linear_79_665" x1="213.767" y1="-18.2736" x2="76.7741" y2="135.236" gradientUnits="userSpaceOnUse">
<stop stop-color="white" stop-opacity="0.51"/>
<stop offset="1" stop-color="white" stop-opacity="0"/>
</linearGradient>
</defs>
</svg>
