<svg width="128" height="113" viewBox="0 0 128 113" fill="none" xmlns="http://www.w3.org/2000/svg">
<g opacity="0.15" clip-path="url(#clip0_148_14)">
<path d="M15.0909 124H3.27273L37.4545 30.9091H49.0909L83.2727 124H71.4545L43.6364 45.6364H42.9091L15.0909 124ZM19.4545 87.6364H67.0909V97.6364H19.4545V87.6364Z" fill="white"/>
<path opacity="0.5" d="M45.2791 124H33.461L67.6428 30.9091H79.2791L113.461 124H101.643L73.8246 45.6364H73.0973L45.2791 124ZM49.6428 87.6364H97.2791V97.6364H49.6428V87.6364Z" fill="white"/>
<path opacity="0.25" d="M72.1656 124H60.3474L94.5293 30.9091H106.166L140.347 124H128.529L100.711 45.6364H99.9838L72.1656 124ZM76.5293 87.6364H124.166V97.6364H76.5293V87.6364Z" fill="white"/>
<circle cx="127.611" cy="21.597" r="10.4225" fill="white"/>
</g>
<defs>
<clipPath id="clip0_148_14">
<rect width="128" height="113" fill="white"/>
</clipPath>
</defs>
</svg>
