<svg width="1074" height="113" viewBox="0 0 1074 113" fill="none" xmlns="http://www.w3.org/2000/svg">
<g clip-path="url(#clip0_76_635)">
<path d="M944.425 8.88916H977.559V133.342H944.425V8.88916ZM1011.34 38.3054C1020.28 38.3054 1027.82 40.0833 1033.97 43.6391C1040.22 47.1949 1045.01 52.2054 1048.35 58.6705C1051.69 65.1356 1053.36 72.7859 1053.36 81.6216V133.342H1020.23V86.4704C1020.23 79.5743 1018.45 74.2945 1014.89 70.6309C1011.45 66.9673 1006.44 65.1356 999.863 65.1356C995.338 65.1356 991.351 66.1053 987.903 68.0449C984.562 69.9844 981.976 72.7321 980.145 76.2879C978.421 79.8437 977.559 84.046 977.559 88.8948L967.215 83.5611C968.508 73.7557 971.255 65.5127 975.458 58.8321C979.66 52.0437 984.832 46.9255 990.974 43.4775C997.223 40.0294 1004.01 38.3054 1011.34 38.3054Z" fill="#868FCC" fill-opacity="0.15"/>
<path d="M931.379 94.3904C930.517 102.687 927.5 109.961 922.328 116.21C917.156 122.46 910.421 127.309 902.124 130.757C893.935 134.205 884.722 135.929 874.486 135.929C863.172 135.929 853.205 133.881 844.585 129.787C835.965 125.692 829.23 119.981 824.381 112.654C819.532 105.327 817.108 96.8687 817.108 87.2788C817.108 77.5812 819.532 69.0688 824.381 61.7417C829.23 54.4145 835.965 48.7037 844.585 44.6091C853.205 40.4068 863.172 38.3057 874.486 38.3057C884.722 38.3057 893.935 40.0836 902.124 43.6394C910.421 47.0874 917.156 51.9363 922.328 58.1859C927.5 64.3277 930.517 71.6009 931.379 80.0056H898.568C897.383 74.5102 894.635 70.3079 890.325 67.3986C886.015 64.3816 880.735 62.8731 874.486 62.8731C869.637 62.8731 865.381 63.8428 861.717 65.7824C858.161 67.6141 855.36 70.3618 853.313 74.0254C851.373 77.5812 850.403 81.999 850.403 87.2788C850.403 92.4509 851.373 96.8687 853.313 100.532C855.36 104.088 858.161 106.836 861.717 108.775C865.381 110.607 869.637 111.523 874.486 111.523C880.735 111.523 886.015 109.961 890.325 106.836C894.743 103.711 897.491 99.5625 898.568 94.3904H931.379Z" fill="#868FCC" fill-opacity="0.15"/>
<path d="M756.76 135.929C745.554 135.929 735.533 133.881 726.698 129.787C717.97 125.692 711.074 119.981 706.009 112.654C700.945 105.219 698.413 96.5994 698.413 86.7939C698.413 77.204 700.837 68.7994 705.686 61.58C710.535 54.2529 717.162 48.5421 725.566 44.4475C734.079 40.3529 743.669 38.3057 754.336 38.3057C765.434 38.3057 774.863 40.7301 782.621 45.5789C790.487 50.32 796.521 57.0545 800.723 65.7824C805.033 74.5102 807.188 84.8005 807.188 96.6532H725.081V76.773H788.601L777.772 83.723C777.341 78.9819 776.156 74.9951 774.216 71.7626C772.277 68.4223 769.691 65.8901 766.458 64.1661C763.333 62.442 759.562 61.58 755.144 61.58C750.295 61.58 746.147 62.5498 742.699 64.4893C739.251 66.4289 736.557 69.1227 734.617 72.5707C732.678 75.911 731.708 79.844 731.708 84.3695C731.708 90.1881 733.001 95.1447 735.587 99.2393C738.281 103.226 742.16 106.297 747.224 108.452C752.396 110.607 758.7 111.685 766.135 111.685C772.923 111.685 779.658 110.823 786.338 109.099C793.127 107.267 799.268 104.735 804.764 101.502V122.514C798.406 126.824 791.133 130.164 782.944 132.535C774.863 134.797 766.135 135.929 756.76 135.929Z" fill="#868FCC" fill-opacity="0.15"/>
<path d="M599.988 65.4593V51.0744L618.737 43.4779L632.96 16.1628H651.709V41.0535H690.499V65.4593H651.709V92.6127C651.709 99.2933 653.056 103.981 655.749 106.674C658.443 109.368 663.346 110.715 670.457 110.715C674.983 110.715 678.97 110.338 682.418 109.584C685.974 108.722 689.206 107.644 692.116 106.351V131.242C688.883 132.427 684.627 133.504 679.347 134.474C674.067 135.444 668.626 135.929 663.023 135.929C652.786 135.929 644.382 134.366 637.809 131.242C631.344 128.117 626.549 123.645 623.424 117.827C620.299 111.9 618.737 105.004 618.737 97.1383V65.4593H599.988Z" fill="#868FCC" fill-opacity="0.15"/>
<path d="M556.771 39.5988L573.419 42.8313L589.905 39.5988V133.343H556.771V39.5988ZM573.257 32.0023C567.547 32.0023 562.913 30.6015 559.357 27.7999C555.802 24.8907 554.024 20.9577 554.024 16.0011C554.024 11.1523 555.802 7.27324 559.357 4.36395C562.913 1.45465 567.547 0 573.257 0C579.184 0 583.871 1.45465 587.319 4.36395C590.875 7.27324 592.653 11.1523 592.653 16.0011C592.653 20.9577 590.875 24.8907 587.319 27.7999C583.871 30.6015 579.184 32.0023 573.257 32.0023Z" fill="#868FCC" fill-opacity="0.15"/>
<path d="M424.873 41.0533H458.007L463.987 77.9044V133.343H431.015V72.894L424.873 41.0533ZM497.929 38.3057C506.764 38.3057 514.307 40.0836 520.557 43.6394C526.806 47.1952 531.547 52.2056 534.78 58.6707C538.12 65.1358 539.79 72.7862 539.79 81.6219V133.343H506.818V86.4707C506.818 79.5746 505.04 74.2947 501.485 70.6312C498.037 66.9676 493.026 65.1358 486.453 65.1358C481.928 65.1358 477.941 66.1056 474.493 68.0451C471.153 69.9847 468.567 72.7323 466.735 76.2881C464.903 79.8439 463.987 84.0463 463.987 88.8951L453.804 83.5614C455.098 73.756 457.845 65.513 462.048 58.8324C466.25 52.044 471.422 46.9258 477.564 43.4777C483.706 40.0297 490.494 38.3057 497.929 38.3057Z" fill="#868FCC" fill-opacity="0.15"/>
<path d="M378.409 110.068V94.3904L379.54 90.5114V67.8835L378.409 64.4893V41.0533H411.381V108.775C411.381 120.089 408.741 129.787 403.461 137.868C398.182 145.95 390.8 152.091 381.318 156.294C371.944 160.496 360.846 162.597 348.023 162.597C339.511 162.597 331.591 161.466 324.264 159.203C317.044 157.048 309.825 153.816 302.606 149.505V124.615C309.286 129.571 316.29 133.127 323.617 135.282C331.052 137.545 338.487 138.676 345.922 138.676C356.482 138.676 364.509 136.414 370.004 131.888C375.608 127.362 378.409 120.089 378.409 110.068ZM338.81 123.645C330.082 123.645 322.324 121.867 315.536 118.311C308.748 114.756 303.36 109.799 299.373 103.442C295.494 96.9765 293.555 89.4877 293.555 80.9753C293.555 72.3552 295.494 64.8665 299.373 58.5091C303.36 52.1518 308.748 47.1952 315.536 43.6394C322.324 40.0836 330.082 38.3057 338.81 38.3057C345.275 38.3057 351.202 39.3293 356.589 41.3766C361.977 43.3161 366.772 45.956 370.974 49.2963C375.177 52.5289 378.678 56.0847 381.48 59.9638C384.389 63.7351 386.598 67.5064 388.107 71.2777C389.615 75.049 390.369 78.3893 390.369 81.2986C390.369 85.2854 389.184 89.7032 386.814 94.5521C384.551 99.4009 381.211 104.034 376.793 108.452C372.375 112.87 366.933 116.533 360.468 119.443C354.111 122.244 346.892 123.645 338.81 123.645ZM349.963 101.179C356.32 101.179 361.977 99.5086 366.933 96.1683C371.89 92.828 376.092 87.7637 379.54 80.9753C375.985 74.0792 371.728 69.0149 366.772 65.7824C361.815 62.4421 356.212 60.7719 349.963 60.7719C345.222 60.7719 341.073 61.58 337.517 63.1963C334.069 64.8126 331.429 67.1831 329.598 70.3079C327.766 73.325 326.85 76.8808 326.85 80.9753C326.85 84.9622 327.766 88.518 329.598 91.6428C331.429 94.6598 334.069 97.0304 337.517 98.7544C340.965 100.371 345.114 101.179 349.963 101.179Z" fill="#868FCC" fill-opacity="0.15"/>
<path d="M224.703 135.929C212.85 135.929 202.506 133.935 193.67 129.949C184.834 125.854 177.938 120.143 172.982 112.816C168.025 105.381 165.547 96.8687 165.547 87.2788C165.547 77.4734 168.025 68.9072 172.982 61.58C177.938 54.2529 184.834 48.5421 193.67 44.4475C202.506 40.3529 212.85 38.3057 224.703 38.3057C236.448 38.3057 246.738 40.3529 255.573 44.4475C264.517 48.5421 271.467 54.2529 276.423 61.58C281.38 68.9072 283.858 77.4734 283.858 87.2788C283.858 96.8687 281.38 105.381 276.423 112.816C271.467 120.143 264.517 125.854 255.573 129.949C246.738 133.935 236.448 135.929 224.703 135.929ZM224.703 111.523C230.09 111.523 234.67 110.553 238.441 108.614C242.32 106.674 245.283 103.873 247.33 100.209C249.378 96.5455 250.401 92.2354 250.401 87.2788C250.401 82.1067 249.378 77.7428 247.33 74.187C245.283 70.5234 242.32 67.7219 238.441 65.7824C234.67 63.8428 230.09 62.8731 224.703 62.8731C219.315 62.8731 214.682 63.8428 210.803 65.7824C206.924 67.7219 203.96 70.5234 201.913 74.187C199.866 77.7428 198.842 82.0529 198.842 87.1172C198.842 92.1815 199.866 96.5455 201.913 100.209C203.96 103.873 206.924 106.674 210.803 108.614C214.682 110.553 219.315 111.523 224.703 111.523Z" fill="#868FCC" fill-opacity="0.15"/>
<path d="M156.227 82.5918C155.041 93.2592 151.378 102.634 145.236 110.715C139.094 118.689 131.013 124.884 120.992 129.302C111.079 133.72 99.6571 135.929 86.7268 135.929C72.6114 135.929 60.2738 133.289 49.7141 128.009C39.1544 122.729 30.9114 115.348 24.9851 105.866C19.1665 96.384 16.2572 85.3395 16.2572 72.7325C16.2572 60.1256 19.1665 49.081 24.9851 39.5989C30.9114 30.1167 39.1544 22.7357 49.7141 17.4559C60.2738 12.1761 72.6114 9.53613 86.7268 9.53613C99.6571 9.53613 111.079 11.745 120.992 16.1629C131.013 20.5807 139.094 26.8303 145.236 34.9117C151.378 42.8853 155.041 52.2058 156.227 62.8732H122.608C121.531 57.7012 119.43 53.3372 116.305 49.7814C113.18 46.1178 109.085 43.3163 104.021 41.3768C99.0644 39.4372 93.2997 38.4675 86.7268 38.4675C79.1842 38.4675 72.6652 39.8682 67.1699 42.6698C61.6746 45.3636 57.4722 49.2965 54.5629 54.4686C51.6537 59.5329 50.199 65.6209 50.199 72.7325C50.199 79.8441 51.6537 85.986 54.5629 91.1581C57.4722 96.2224 61.6746 100.155 67.1699 102.957C72.6652 105.651 79.1842 106.998 86.7268 106.998C93.2997 106.998 99.0644 106.082 104.021 104.25C109.085 102.418 113.18 99.6705 116.305 96.0069C119.43 92.3433 121.531 87.8716 122.608 82.5918H156.227Z" fill="#868FCC" fill-opacity="0.15"/>
</g>
<defs>
<clipPath id="clip0_76_635">
<rect width="1074" height="113" fill="white"/>
</clipPath>
</defs>
</svg>
