<svg width="1098" height="322" viewBox="0 0 1098 322" fill="none" xmlns="http://www.w3.org/2000/svg">
<mask id="mask0_26_120" style="mask-type:alpha" maskUnits="userSpaceOnUse" x="0" y="0" width="1098" height="322">
<rect x="0.274567" y="0.454651" width="1097.44" height="320.879" fill="#090D33"/>
</mask>
<g mask="url(#mask0_26_120)">
<path opacity="0.25" d="M416.144 133.567C414.42 132.525 412.944 131.031 411.933 129.216C382.871 81.8578 352.321 50.7505 309.431 24.8218C266.757 -0.976462 220.39 -14.865 171.839 -15.9318C165.049 -16.125 159.703 -22.065 159.672 -29.3053C159.856 -36.4154 165.654 -42.2387 172.444 -42.0455C225.099 -40.604 275.537 -25.7591 321.874 2.25418C367.781 30.0069 402.02 64.8485 432.922 115.125C436.692 121.316 434.899 129.259 429.111 132.981C424.931 135.871 420.023 135.912 416.144 133.567ZM42.4006 65.596C40.2453 64.293 38.4634 62.313 37.2702 59.7863C34.3041 53.1787 37.0839 45.5313 43.3943 42.4254C82.1519 23.7299 122.996 15.3225 164.906 17.4896C252.739 21.8424 339.504 73.9951 387.236 151.598C409.983 188.519 423.576 229.535 427.617 273.803C428.328 280.852 423.268 287.423 416.32 288.037C409.372 288.651 403.313 283.483 402.727 276.208C399.008 236.046 386.757 198.851 366.247 165.689C322.683 95.1202 243.586 47.3021 163.53 43.4381C125.508 41.5154 88.4949 49.2295 53.4191 65.9382C49.9529 68.0554 45.849 67.6807 42.4006 65.596ZM26.9126 419.422C24.1107 417.728 21.9311 414.906 21.2357 411.476C13.3108 380.507 10.1494 361.745 10.7656 325.708C11.1997 288.96 22.1058 250.418 42.1396 214.084C79.0962 147.058 163.952 125.539 231.196 166.191C298.44 206.843 323.07 294.551 286.113 361.577C282.629 367.896 275.15 369.995 269.116 366.346C263.081 362.698 261.077 354.867 264.561 348.548C294.674 293.934 274.143 222.244 218.753 188.758C163.363 155.273 93.8049 172.5 63.692 227.113C45.7736 259.611 36.1208 293.795 35.829 326.116C35.3128 360.408 38.6986 377.199 45.5883 404.834C47.1946 411.824 43.3371 418.82 36.7535 420.857C33.1384 421.681 29.7144 421.116 26.9126 419.422ZM204.464 471.093C178.816 455.588 159.919 435.136 148.726 410.616C129.18 368.409 130.406 319.802 152.057 280.534C155.541 274.215 163.02 272.117 169.055 275.765C175.09 279.413 177.094 287.245 173.61 293.564C156.064 325.384 155.033 364.78 171.123 399.182C180.453 419.265 195.479 435.27 217.032 448.299C222.204 451.426 231.198 455.961 240.691 459.593C247.132 461.983 250.496 469.433 248.089 476.403C245.807 483.148 238.692 486.67 232.036 484.15C218.382 479.206 207.481 472.917 204.464 471.093ZM135.51 491.393C134.648 490.872 133.695 489.995 132.957 489.248C104.164 458.601 89.0909 431.736 78.9131 393.386C66.0358 343.776 72.4606 291.993 97.0984 247.309C117.257 210.749 163.424 198.941 200.063 221.091C236.702 243.241 250.02 291.011 229.862 327.57C216.547 351.718 225.765 383.469 250.551 398.453C275.336 413.437 306.205 405.92 319.52 381.773C366.431 296.693 334.462 185.29 248.252 133.172C187.043 96.1686 111.346 97.9489 55.6439 137.995C37.1594 151.194 21.0277 170.027 8.08667 193.497C-1.61912 211.1 -15.4157 239.77 -22.3936 283.696C-23.4736 290.867 -29.884 295.718 -36.6075 294.361C-43.4555 293.23 -47.9636 286.292 -46.7925 279.478C-41.0525 243.53 -30.0488 211.065 -13.2503 180.598C1.68171 153.517 20.202 131.915 41.7218 116.339C105.103 70.7043 191.206 68.2937 260.82 110.379C358.884 169.663 394.952 297.084 341.197 394.577C321.038 431.136 274.871 442.945 238.232 420.795C201.593 398.645 188.275 350.875 208.433 314.315C221.748 290.168 212.53 258.417 187.744 243.433C162.959 228.449 132.09 235.965 118.775 260.113C97.4972 298.703 91.8125 343.411 102.959 386.258C111.737 419.85 124.879 443.442 150.415 470.614C155.363 475.712 155.112 483.986 150.368 488.941C146.429 493.48 140.036 494.129 135.51 491.393Z" fill="url(#paint0_linear_26_120)"/>
</g>
<path opacity="0.25" fill-rule="evenodd" clip-rule="evenodd" d="M954.824 193.121C954.603 193.352 954.604 193.716 954.826 193.945L986.546 226.767C987.338 227.587 987.598 228.784 987.216 229.858L979.475 251.614C978.726 253.719 976.022 254.296 974.479 252.68L939.104 215.639C937.923 214.402 935.947 214.402 934.765 215.639L873.337 279.962C872.155 281.199 870.179 281.199 868.998 279.962L854.482 264.762C853.369 263.597 853.375 261.76 854.496 260.603L917.537 195.5C918.616 194.386 918.666 192.636 917.669 191.449C903.057 174.05 891.126 154.996 882.07 134.891C881.186 132.928 882.636 130.729 884.789 130.729H904.679C905.824 130.729 906.868 131.382 907.38 132.406C914.762 147.167 923.862 161.238 934.681 174.211C935.856 175.62 938.012 175.618 939.185 174.208C956.067 153.914 968.801 131.053 977.287 106.976C977.967 105.047 976.522 103.045 974.476 103.045H834.706C833.05 103.045 831.706 101.702 831.706 100.045V78.6363C831.706 76.9794 833.05 75.6363 834.706 75.6363H920.781C922.438 75.6363 923.781 74.2932 923.781 72.6363V51.09C923.781 49.4332 925.124 48.09 926.781 48.09H947.088C948.745 48.09 950.088 49.4332 950.088 51.09V72.6363C950.088 74.2932 951.432 75.6363 953.088 75.6363H1039.16C1040.82 75.6363 1042.16 76.9795 1042.16 78.6363V100.183C1042.16 101.839 1040.82 103.183 1039.16 103.183H1005.87C1004.54 103.183 1003.37 104.058 1002.98 105.33C993.299 137.039 977.206 166.99 954.824 193.121V193.121ZM1034.87 156.886C1035.3 155.693 1036.43 154.897 1037.7 154.897H1059.78C1061.05 154.897 1062.18 155.692 1062.61 156.884L1097.4 253.838C1097.52 254.163 1097.58 254.506 1097.58 254.852V318.531C1097.58 319.439 1096.84 320.175 1095.93 320.175V320.175C1095.24 320.175 1094.62 319.74 1094.39 319.088L1080.63 280.84C1080.2 279.649 1079.07 278.856 1077.8 278.856H1019.55C1018.28 278.856 1017.15 279.653 1016.72 280.848L1003.41 318.182C1002.99 319.377 1001.86 320.175 1000.59 320.175H980.656C978.581 320.175 977.132 318.118 977.832 316.164L1034.87 156.886ZM1051.57 199.578C1050.62 196.924 1046.86 196.924 1045.91 199.578L1028.86 247.3C1028.17 249.254 1029.61 251.309 1031.69 251.309H1065.79C1067.87 251.309 1069.31 249.254 1068.62 247.3L1051.57 199.578Z" fill="url(#paint1_linear_26_120)"/>
<path d="M689.529 77.0419H656.279C653.666 77.0419 651.528 79.1794 651.528 81.792V115.043C651.528 117.655 653.666 119.793 656.279 119.793H689.529C692.142 119.793 694.279 117.655 694.279 115.043V81.792C694.279 79.1794 692.142 77.0419 689.529 77.0419ZM665.779 110.293H661.029V93.6672H665.779V110.293ZM675.279 110.293H670.529V86.5421H675.279V110.293ZM684.779 110.293H680.029V100.792H684.779V110.293Z" fill="white" fill-opacity="0.15"/>
<path opacity="0.15" d="M792.268 224.407C791.378 226.365 788.448 225.73 788.448 223.579V201.387C788.448 200.282 787.552 199.387 786.448 199.387H783.02C781.915 199.387 781.02 198.491 781.02 197.387V175.389C781.02 174.285 781.915 173.389 783.02 173.389H804.063C805.478 173.389 806.446 174.818 805.92 176.132L800.687 189.216C800.161 190.53 801.129 191.959 802.544 191.959H803.911C805.366 191.959 806.334 193.462 805.732 194.787L792.268 224.407ZM779.02 206.815C780.124 206.815 781.02 207.71 781.02 208.815V230.812C781.02 231.917 780.124 232.812 779.02 232.812H740.166C736.081 232.812 732.739 229.47 732.739 225.385V214.243C732.739 210.157 736.081 206.815 740.166 206.815H779.02ZM748.523 219.028C748.523 217.924 747.627 217.028 746.523 217.028H744.952C743.847 217.028 742.952 217.924 742.952 219.028V220.599C742.952 221.704 743.847 222.599 744.952 222.599H746.523C747.627 222.599 748.523 221.704 748.523 220.599V219.028ZM771.592 173.389C772.696 173.389 773.592 174.285 773.592 175.389V197.387C773.592 198.491 772.696 199.387 771.592 199.387H740.166C736.081 199.387 732.739 196.044 732.739 191.959V180.817C732.739 176.732 736.081 173.389 740.166 173.389H771.592ZM748.523 185.603C748.523 184.498 747.627 183.603 746.523 183.603H744.952C743.847 183.603 742.952 184.498 742.952 185.603V187.174C742.952 188.278 743.847 189.174 744.952 189.174H746.523C747.627 189.174 748.523 188.278 748.523 187.174V185.603Z" fill="white"/>
<defs>
<linearGradient id="paint0_linear_26_120" x1="304.388" y1="33.1861" x2="84.0496" y2="276.249" gradientUnits="userSpaceOnUse">
<stop stop-color="white" stop-opacity="0.51"/>
<stop offset="1" stop-color="white" stop-opacity="0"/>
</linearGradient>
<linearGradient id="paint1_linear_26_120" x1="1031.72" y1="38.5077" x2="930.294" y2="278.496" gradientUnits="userSpaceOnUse">
<stop stop-color="white"/>
<stop offset="1" stop-color="white" stop-opacity="0"/>
</linearGradient>
</defs>
</svg>
