<svg width="1097" height="139" viewBox="0 0 1097 139" fill="none" xmlns="http://www.w3.org/2000/svg">
<mask id="mask0_79_665" style="mask-type:alpha" maskUnits="userSpaceOnUse" x="0" y="0" width="1097" height="139">
<rect x="0.948486" y="0.253265" width="1095.17" height="138.38" fill="black"/>
</mask>
<g mask="url(#mask0_79_665)">
<mask id="mask1_79_665" style="mask-type:alpha" maskUnits="userSpaceOnUse" x="-47" y="-364" width="482" height="512">
<path opacity="0.5" d="M416.15 -195.933C414.426 -196.929 412.951 -198.355 411.94 -200.088C382.878 -245.316 352.327 -275.024 309.438 -299.786C266.764 -324.424 220.397 -337.688 171.845 -338.707C165.055 -338.891 159.709 -344.564 159.678 -351.479C159.863 -358.269 165.66 -363.83 172.45 -363.646C225.106 -362.269 275.543 -348.092 321.881 -321.339C367.788 -294.835 402.027 -261.56 432.929 -213.546C436.699 -207.633 434.906 -200.048 429.118 -196.493C424.938 -193.733 420.03 -193.693 416.15 -195.933ZM42.4071 -260.847C40.2519 -262.091 38.4699 -263.982 37.2768 -266.395C34.3107 -272.705 37.0905 -280.009 43.4008 -282.975C82.1584 -300.829 123.002 -308.858 164.912 -306.789C252.745 -302.632 339.51 -252.825 387.243 -178.714C409.99 -143.453 423.583 -104.283 427.623 -62.0058C428.334 -55.2733 423.275 -48.9987 416.327 -48.4122C409.379 -47.8258 403.32 -52.7609 402.733 -59.7089C399.015 -98.064 386.764 -133.586 366.254 -165.256C322.69 -232.65 243.592 -278.317 163.536 -282.008C125.515 -283.844 88.5015 -276.477 53.4257 -260.52C49.9594 -258.498 45.8555 -258.856 42.4071 -260.847ZM26.9191 77.0625C24.1173 75.4449 21.9376 72.7496 21.2422 69.4745C13.3173 39.8981 10.1559 21.9804 10.7722 -12.4351C11.2062 -47.5305 22.1123 -84.3388 42.1461 -119.038C79.1028 -183.049 163.959 -203.6 231.203 -164.777C298.446 -125.954 323.077 -42.1908 286.12 21.8201C282.636 27.8548 275.157 29.8588 269.122 26.3746C263.087 22.8905 261.083 15.4114 264.568 9.37675C294.68 -42.7802 274.149 -111.245 218.759 -143.224C163.369 -175.204 93.8114 -158.752 63.6986 -106.595C45.7802 -75.5594 36.1273 -42.9128 35.8356 -12.0457C35.3193 20.7034 38.7052 36.7391 45.5948 63.1314C47.2011 69.8061 43.3436 76.4874 36.76 78.4336C33.1449 79.2201 29.7209 78.6802 26.9191 77.0625ZM204.47 126.409C178.823 111.602 159.926 92.0702 148.732 68.653C129.187 28.3445 130.412 -18.0761 152.064 -55.5774C155.548 -61.6121 163.027 -63.6161 169.062 -60.132C175.096 -56.6478 177.1 -49.1688 173.616 -43.1341C156.071 -12.7451 155.039 24.8789 171.13 57.7328C180.459 76.9127 195.486 92.1977 217.038 104.641C222.211 107.627 231.205 111.958 240.697 115.427C247.138 117.709 250.502 124.824 248.096 131.481C245.814 137.922 238.699 141.286 232.042 138.879C218.388 134.157 207.488 128.151 204.47 126.409ZM135.517 145.796C134.655 145.298 133.701 144.461 132.964 143.747C104.17 114.479 89.0974 88.8224 78.9196 52.198C66.0424 4.81945 72.4671 -44.634 97.1049 -87.3078C117.263 -122.223 163.431 -133.5 200.07 -112.347C236.709 -91.193 250.026 -45.572 229.868 -10.657C216.554 12.4041 225.772 42.7271 250.557 57.0369C275.342 71.3467 306.212 64.1684 319.526 41.1072C366.438 -40.1456 334.469 -146.537 248.259 -196.31C187.05 -231.649 111.353 -229.949 55.6505 -191.704C37.1659 -179.1 21.0343 -161.113 8.0932 -138.699C-1.61259 -121.888 -15.4092 -94.5073 -22.3871 -52.5573C-23.4671 -45.7093 -29.8775 -41.0768 -36.601 -42.3723C-43.449 -43.4523 -47.9571 -50.0782 -46.786 -56.5862C-41.046 -90.9172 -30.0422 -121.922 -13.2437 -151.018C1.68824 -176.881 20.2085 -197.511 41.7283 -212.386C105.11 -255.968 191.212 -258.27 260.827 -218.078C358.89 -161.461 394.958 -39.7717 341.203 53.335C321.045 88.25 274.877 99.5275 238.238 78.3738C201.599 57.2202 188.282 11.5992 208.44 -23.3158C221.754 -46.377 212.536 -76.6999 187.751 -91.0097C162.966 -105.32 132.096 -98.1412 118.782 -75.0801C97.5037 -38.2253 91.819 4.4712 102.965 45.3906C111.744 77.4711 124.886 100.002 150.422 125.952C155.37 130.821 155.119 138.722 150.375 143.454C146.435 147.789 140.043 148.409 135.517 145.796Z" fill="url(#paint0_linear_79_665)"/>
</mask>
<g mask="url(#mask1_79_665)">
<rect x="0.948608" y="0.253265" width="1095.17" height="138.38" fill="#D9D9D9"/>
</g>
</g>
<defs>
<linearGradient id="paint0_linear_79_665" x1="216.166" y1="-20.7071" x2="79.1446" y2="132.554" gradientUnits="userSpaceOnUse">
<stop stop-color="white" stop-opacity="0.51"/>
<stop offset="1" stop-color="white" stop-opacity="0"/>
</linearGradient>
</defs>
</svg>
