<svg width="110" height="215" viewBox="0 0 110 215" fill="none" xmlns="http://www.w3.org/2000/svg">
<path d="M0.932129 0.171021H109.668V17.7852H0.932129V0.171021Z" fill="white" fill-opacity="0.25"/>
<path d="M0.932129 24.5293H85.817V42.1435H0.932129V24.5293Z" fill="#FF8B7E" fill-opacity="0.25"/>
<path d="M0.932129 48.5765H92.9215V66.1908H0.932129V48.5765Z" fill="#74C2FF" fill-opacity="0.25"/>
<path d="M0.932129 72.9348H87.7002V90.549H0.932129V72.9348Z" fill="#6CFFF6" fill-opacity="0.25"/>
<path d="M0.932129 98.1395H86.832V115.754H0.932129V98.1395Z" fill="#FFD950" fill-opacity="0.25"/>
<path d="M0.932129 122.338H85.817V139.952H0.932129V122.338Z" fill="#86FF73" fill-opacity="0.25"/>
<path d="M0.932129 146.875H74.4618V164.489H0.932129V146.875Z" fill="#FF7E9D" fill-opacity="0.25"/>
<path d="M0.932129 171.412H58.414V189.026H0.932129V171.412Z" fill="#A377FF" fill-opacity="0.25"/>
<path d="M0.932129 194.782H44.2567V212.396H0.932129V194.782Z" fill="#FF8B66" fill-opacity="0.25"/>
<path d="M91.4576 57.2323L88.6463 57.4053C88.5983 57.165 88.495 56.9488 88.3364 56.7566C88.1778 56.5595 87.9688 56.4033 87.7093 56.288C87.4546 56.1679 87.1494 56.1078 86.7938 56.1078C86.3181 56.1078 85.9168 56.2087 85.59 56.4106C85.2633 56.6076 85.0999 56.8719 85.0999 57.2035C85.0999 57.4678 85.2056 57.6912 85.417 57.8738C85.6285 58.0564 85.9913 58.203 86.5055 58.3135L88.5094 58.7172C89.5858 58.9383 90.3883 59.2939 90.917 59.784C91.4456 60.2742 91.7099 60.9181 91.7099 61.7159C91.7099 62.4415 91.496 63.0782 91.0683 63.626C90.6454 64.1739 90.064 64.6016 89.3239 64.9091C88.5887 65.2119 87.7405 65.3632 86.7794 65.3632C85.3137 65.3632 84.146 65.0581 83.2762 64.4478C82.4112 63.8327 81.9042 62.9965 81.7552 61.9393L84.7755 61.7807C84.8668 62.2276 85.0879 62.5688 85.4387 62.8043C85.7895 63.035 86.2388 63.1503 86.7866 63.1503C87.3248 63.1503 87.7573 63.047 88.0841 62.8403C88.4157 62.6289 88.5839 62.3574 88.5887 62.0258C88.5839 61.7471 88.4661 61.5188 88.2355 61.341C88.0048 61.1584 87.6492 61.0191 87.1686 60.9229L85.2512 60.5409C84.17 60.3247 83.3651 59.9498 82.8365 59.4164C82.3127 58.883 82.0508 58.203 82.0508 57.3765C82.0508 56.6652 82.243 56.0525 82.6274 55.5384C83.0167 55.0242 83.5621 54.6277 84.2637 54.349C84.9701 54.0703 85.7967 53.9309 86.7434 53.9309C88.1418 53.9309 89.2422 54.2264 90.0447 54.8175C90.8521 55.4086 91.323 56.2135 91.4576 57.2323Z" fill="#0883CE"/>
<path d="M75.3344 65.3632C74.2003 65.3632 73.2248 65.123 72.4079 64.6424C71.5958 64.1571 70.971 63.4843 70.5337 62.6241C70.1012 61.7639 69.885 60.774 69.885 59.6543C69.885 58.5202 70.1036 57.5254 70.5409 56.6701C70.9831 55.8099 71.6102 55.1395 72.4223 54.6589C73.2344 54.1736 74.2004 53.9309 75.32 53.9309C76.2859 53.9309 77.1317 54.1063 77.8574 54.4571C78.583 54.8079 79.1572 55.3005 79.5801 55.9348C80.003 56.5691 80.2361 57.314 80.2793 58.1694H77.3816C77.2999 57.6167 77.0837 57.1722 76.7329 56.8358C76.3869 56.4947 75.9327 56.3241 75.3705 56.3241C74.8947 56.3241 74.4791 56.4538 74.1235 56.7133C73.7727 56.968 73.4987 57.3404 73.3017 57.8306C73.1047 58.3208 73.0062 58.9142 73.0062 59.611C73.0062 60.3174 73.1023 60.9181 73.2945 61.4131C73.4915 61.9081 73.7679 62.2853 74.1235 62.5448C74.4791 62.8043 74.8947 62.9341 75.3705 62.9341C75.7213 62.9341 76.0361 62.862 76.3148 62.7178C76.5983 62.5736 76.8314 62.3646 77.014 62.0907C77.2014 61.812 77.3239 61.478 77.3816 61.0887H80.2793C80.2313 61.9345 80.0006 62.6794 79.5873 63.3233C79.1789 63.9624 78.6142 64.4622 77.8934 64.8226C77.1726 65.183 76.3196 65.3632 75.3344 65.3632Z" fill="#0883CE"/>
<path d="M64.8013 65.1469V54.075H67.8721V65.1469H64.8013ZM66.3439 52.6478C65.8874 52.6478 65.4957 52.4964 65.1689 52.1937C64.847 51.8861 64.686 51.5185 64.686 51.0908C64.686 50.6679 64.847 50.3051 65.1689 50.0023C65.4957 49.6948 65.8874 49.541 66.3439 49.541C66.8004 49.541 67.1897 49.6948 67.5116 50.0023C67.8384 50.3051 68.0018 50.6679 68.0018 51.0908C68.0018 51.5185 67.8384 51.8861 67.5116 52.1937C67.1897 52.4964 66.8004 52.6478 66.3439 52.6478Z" fill="#0883CE"/>
<path d="M62.801 54.075V56.3817H56.1334V54.075H62.801ZM57.6471 51.4224H60.7179V61.7446C60.7179 62.0282 60.7611 62.2492 60.8476 62.4078C60.9341 62.5616 61.0542 62.6697 61.208 62.7322C61.3666 62.7946 61.5492 62.8259 61.7558 62.8259C61.9 62.8259 62.0442 62.8139 62.1883 62.7898C62.3325 62.761 62.443 62.7394 62.5199 62.725L63.0029 65.01C62.8491 65.058 62.6329 65.1133 62.3541 65.1758C62.0754 65.243 61.7366 65.2839 61.3378 65.2983C60.5977 65.3271 59.949 65.2286 59.3915 65.0028C58.8389 64.7769 58.4088 64.4261 58.1012 63.9504C57.7937 63.4746 57.6423 62.8739 57.6471 62.1483V51.4224Z" fill="#0883CE"/>
<path d="M46.914 69.2988C46.5247 69.2988 46.1595 69.2676 45.8183 69.2051C45.4819 69.1475 45.2032 69.073 44.9822 68.9817L45.6742 66.6894C46.0346 66.8 46.359 66.86 46.6473 66.8697C46.9404 66.8793 47.1927 66.812 47.4042 66.6678C47.6204 66.5237 47.7958 66.2786 47.9304 65.9326L48.1106 65.464L44.1388 54.075H47.3681L49.6603 62.2059H49.7757L52.0895 54.075H55.3405L51.0371 66.3435C50.8305 66.9393 50.5494 67.4583 50.1938 67.9004C49.843 68.3474 49.3984 68.6909 48.8602 68.9312C48.322 69.1763 47.6733 69.2988 46.914 69.2988Z" fill="#0883CE"/>
<path d="M42.5584 50.3844V65.147H39.4877V50.3844H42.5584Z" fill="#0883CE"/>
<path d="M30.8701 65.356C30.1637 65.356 29.5342 65.2335 28.9816 64.9884C28.4289 64.7385 27.9916 64.3709 27.6697 63.8855C27.3525 63.3954 27.1939 62.7851 27.1939 62.0546C27.1939 61.4395 27.3069 60.9229 27.5327 60.5049C27.7586 60.0868 28.0661 59.7504 28.4554 59.4957C28.8446 59.241 29.2867 59.0488 29.7817 58.919C30.2815 58.7893 30.8053 58.698 31.3531 58.6451C31.997 58.5778 32.516 58.5154 32.9101 58.4577C33.3041 58.3952 33.5901 58.3039 33.7679 58.1838C33.9457 58.0637 34.0346 57.8859 34.0346 57.6504V57.6071C34.0346 57.1506 33.8904 56.7974 33.6021 56.5475C33.3186 56.2976 32.9149 56.1727 32.3911 56.1727C31.8385 56.1727 31.3988 56.2952 31.072 56.5403C30.7452 56.7806 30.529 57.0833 30.4232 57.4485L27.5832 57.2179C27.7273 56.5451 28.0109 55.9636 28.4337 55.4735C28.8566 54.9785 29.4021 54.5989 30.07 54.3346C30.7428 54.0655 31.5213 53.9309 32.4055 53.9309C33.0206 53.9309 33.6093 54.003 34.1715 54.1472C34.7386 54.2913 35.2408 54.5148 35.6781 54.8175C36.1202 55.1203 36.4686 55.5095 36.7233 55.9853C36.978 56.4562 37.1053 57.0209 37.1053 57.6792V65.147H34.1932V63.6116H34.1067C33.9289 63.9576 33.691 64.2628 33.393 64.5271C33.0951 64.7866 32.7371 64.9908 32.319 65.1398C31.9009 65.284 31.418 65.356 30.8701 65.356ZM31.7496 63.2368C32.2013 63.2368 32.6001 63.1479 32.9461 62.9701C33.2921 62.7875 33.5636 62.5424 33.7607 62.2348C33.9577 61.9273 34.0562 61.5789 34.0562 61.1896V60.0147C33.9601 60.0772 33.8279 60.1348 33.6598 60.1877C33.4964 60.2358 33.3114 60.2814 33.1047 60.3247C32.8981 60.3631 32.6914 60.3991 32.4848 60.4328C32.2782 60.4616 32.0908 60.488 31.9226 60.5121C31.5621 60.5649 31.2474 60.649 30.9783 60.7644C30.7092 60.8797 30.5001 61.0359 30.3512 61.2329C30.2022 61.4251 30.1277 61.6654 30.1277 61.9537C30.1277 62.3718 30.2791 62.6914 30.5818 62.9124C30.8894 63.1287 31.2786 63.2368 31.7496 63.2368Z" fill="#0883CE"/>
<path d="M18.1565 58.746V65.147H15.0858V54.0751H18.0124V56.0285H18.1421C18.3872 55.3846 18.7981 54.8752 19.3747 54.5004C19.9514 54.1207 20.6506 53.9309 21.4724 53.9309C22.2412 53.9309 22.9116 54.0991 23.4835 54.4355C24.0553 54.7719 24.4998 55.2524 24.817 55.8771C25.1342 56.4971 25.2927 57.2371 25.2927 58.0973V65.147H22.222V58.6451C22.2268 57.9675 22.0538 57.4389 21.703 57.0593C21.3522 56.6749 20.8693 56.4826 20.2542 56.4826C19.8409 56.4826 19.4757 56.5715 19.1585 56.7493C18.8461 56.9272 18.6011 57.1866 18.4233 57.5278C18.2503 57.8642 18.1614 58.2703 18.1565 58.746Z" fill="#0883CE"/>
<path d="M6.46831 65.356C5.7619 65.356 5.13237 65.2335 4.57974 64.9884C4.0271 64.7385 3.5898 64.3709 3.26783 63.8855C2.95067 63.3954 2.79208 62.7851 2.79208 62.0546C2.79208 61.4395 2.90501 60.9229 3.13087 60.5049C3.35673 60.0868 3.66429 59.7504 4.05353 59.4957C4.44278 59.241 4.88489 59.0488 5.37986 58.919C5.87963 58.7893 6.40343 58.698 6.95126 58.6451C7.5952 58.5778 8.1142 58.5154 8.50825 58.4577C8.90231 58.3952 9.18823 58.3039 9.36604 58.1838C9.54384 58.0637 9.63274 57.8859 9.63274 57.6504V57.6071C9.63274 57.1506 9.48858 56.7974 9.20025 56.5475C8.91672 56.2976 8.51306 56.1727 7.98926 56.1727C7.43662 56.1727 6.99692 56.2952 6.67014 56.5403C6.34336 56.7806 6.12712 57.0833 6.02139 57.4485L3.18133 57.2179C3.3255 56.5451 3.60902 55.9636 4.03191 55.4735C4.45479 54.9785 5.00022 54.5989 5.66819 54.3346C6.34096 54.0655 7.11946 53.9309 8.00367 53.9309C8.61878 53.9309 9.20746 54.003 9.7697 54.1472C10.3368 54.2913 10.8389 54.5148 11.2762 54.8175C11.7183 55.1203 12.0667 55.5095 12.3214 55.9853C12.5761 56.4562 12.7035 57.0209 12.7035 57.6792V65.147H9.79133V63.6116H9.70483C9.52702 63.9576 9.28915 64.2628 8.99121 64.5271C8.69327 64.7866 8.33525 64.9908 7.91717 65.1398C7.49909 65.284 7.01614 65.356 6.46831 65.356ZM7.34772 63.2368C7.79944 63.2368 8.1983 63.1479 8.54429 62.9701C8.89029 62.7875 9.1618 62.5424 9.35883 62.2348C9.55586 61.9273 9.65437 61.5789 9.65437 61.1896V60.0147C9.55826 60.0772 9.42611 60.1348 9.25791 60.1877C9.09453 60.2358 8.90951 60.2814 8.70288 60.3247C8.49624 60.3631 8.2896 60.3991 8.08296 60.4328C7.87633 60.4616 7.68891 60.488 7.52072 60.5121C7.1603 60.5649 6.84554 60.649 6.57643 60.7644C6.30732 60.8797 6.09828 61.0359 5.94931 61.2329C5.80034 61.4251 5.72586 61.6654 5.72586 61.9537C5.72586 62.3718 5.87723 62.6914 6.17998 62.9124C6.48753 63.1287 6.87678 63.2368 7.34772 63.2368Z" fill="#0883CE"/>
<path d="M101.796 16.2824C101.09 16.2824 100.46 16.1599 99.9075 15.9148C99.3549 15.6649 98.9176 15.2973 98.5956 14.8119C98.2784 14.3218 98.1198 13.7115 98.1198 12.981C98.1198 12.3659 98.2328 11.8493 98.4586 11.4313C98.6845 11.0132 98.992 10.6768 99.3813 10.4221C99.7705 10.1674 100.213 9.97518 100.708 9.84543C101.207 9.71568 101.731 9.62438 102.279 9.57152C102.923 9.50424 103.442 9.44177 103.836 9.3841C104.23 9.32163 104.516 9.23032 104.694 9.11019C104.872 8.99005 104.96 8.81224 104.96 8.57677V8.53352C104.96 8.077 104.816 7.72379 104.528 7.47391C104.244 7.22402 103.841 7.09907 103.317 7.09907C102.764 7.09907 102.325 7.22162 101.998 7.4667C101.671 7.70697 101.455 8.00972 101.349 8.37494L98.5091 8.14428C98.6532 7.4715 98.9368 6.89003 99.3597 6.39987C99.7825 5.9049 100.328 5.52527 100.996 5.26096C101.669 4.99185 102.447 4.8573 103.331 4.8573C103.947 4.8573 104.535 4.92938 105.097 5.07355C105.665 5.21771 106.167 5.44117 106.604 5.74392C107.046 6.04667 107.394 6.43591 107.649 6.91166C107.904 7.3826 108.031 7.94725 108.031 8.60561V16.0734H105.119V14.538H105.033C104.855 14.884 104.617 15.1892 104.319 15.4535C104.021 15.713 103.663 15.9172 103.245 16.0662C102.827 16.2103 102.344 16.2824 101.796 16.2824ZM102.675 14.1632C103.127 14.1632 103.526 14.0743 103.872 13.8965C104.218 13.7139 104.49 13.4688 104.687 13.1612C104.884 12.8537 104.982 12.5053 104.982 12.116V10.9411C104.886 11.0036 104.754 11.0612 104.586 11.1141C104.422 11.1621 104.237 11.2078 104.031 11.251C103.824 11.2895 103.617 11.3255 103.411 11.3592C103.204 11.388 103.017 11.4144 102.848 11.4385C102.488 11.4913 102.173 11.5754 101.904 11.6908C101.635 11.8061 101.426 11.9623 101.277 12.1593C101.128 12.3515 101.054 12.5918 101.054 12.8801C101.054 13.2982 101.205 13.6178 101.508 13.8388C101.815 14.0551 102.205 14.1632 102.675 14.1632Z" fill="white"/>
<path d="M86.7452 16.0734V5.00146H89.8159V9.2976H90.6809L93.6939 5.00146H97.2981L93.384 10.4942L97.3413 16.0734H93.6939L90.962 12.1449H89.8159V16.0734H86.7452Z" fill="white"/>
<path d="M77.2699 12.0223L81.256 5.00146H84.2835V16.0734H81.357V9.03089L77.3852 16.0734H74.3361V5.00146H77.2699V12.0223Z" fill="white"/>
<path d="M62.4406 7.41624V5.00146H72.4746V7.41624H68.9065V16.0734H65.9799V7.41624H62.4406Z" fill="white"/>
<path d="M54.0772 12.0223L58.0634 5.00146H61.0909V16.0734H58.1643V9.03089L54.1926 16.0734H51.1434V5.00146H54.0772V12.0223Z" fill="white"/>
<path d="M38.2244 16.0734L38.21 13.637H38.5776C38.8371 13.637 39.0606 13.5745 39.248 13.4496C39.4402 13.3198 39.5988 13.1108 39.7237 12.8225C39.8487 12.5341 39.9472 12.1521 40.0193 11.6763C40.0913 11.1958 40.1394 10.6047 40.1634 9.9031L40.3436 5.00146H48.7629V16.0734H45.8363V7.41624H43.1044L42.9314 10.7969C42.8882 11.7244 42.7752 12.5221 42.5926 13.1901C42.4148 13.858 42.1673 14.4059 41.8502 14.8336C41.533 15.2565 41.151 15.5688 40.704 15.7706C40.2571 15.9725 39.7381 16.0734 39.1471 16.0734H38.2244Z" fill="white"/>
<path d="M30.2556 16.2824C29.5492 16.2824 28.9197 16.1599 28.3671 15.9148C27.8144 15.6649 27.3771 15.2973 27.0552 14.8119C26.738 14.3218 26.5794 13.7115 26.5794 12.981C26.5794 12.3659 26.6923 11.8493 26.9182 11.4313C27.1441 11.0132 27.4516 10.6768 27.8409 10.4221C28.2301 10.1674 28.6722 9.97518 29.1672 9.84543C29.667 9.71568 30.1908 9.62438 30.7386 9.57152C31.3825 9.50424 31.9015 9.44177 32.2956 9.3841C32.6896 9.32163 32.9756 9.23032 33.1534 9.11019C33.3312 8.99005 33.4201 8.81224 33.4201 8.57677V8.53352C33.4201 8.077 33.2759 7.72379 32.9876 7.47391C32.7041 7.22402 32.3004 7.09907 31.7766 7.09907C31.224 7.09907 30.7842 7.22162 30.4575 7.4667C30.1307 7.70697 29.9144 8.00972 29.8087 8.37494L26.9687 8.14428C27.1128 7.4715 27.3964 6.89003 27.8192 6.39987C28.2421 5.9049 28.7876 5.52527 29.4555 5.26096C30.1283 4.99185 30.9068 4.8573 31.791 4.8573C32.4061 4.8573 32.9948 4.92938 33.557 5.07355C34.1241 5.21771 34.6263 5.44117 35.0636 5.74392C35.5057 6.04667 35.8541 6.43591 36.1088 6.91166C36.3635 7.3826 36.4908 7.94725 36.4908 8.60561V16.0734H33.5787V14.538H33.4922C33.3144 14.884 33.0765 15.1892 32.7785 15.4535C32.4806 15.713 32.1226 15.9172 31.7045 16.0662C31.2864 16.2103 30.8035 16.2824 30.2556 16.2824ZM31.1351 14.1632C31.5868 14.1632 31.9856 14.0743 32.3316 13.8965C32.6776 13.7139 32.9491 13.4688 33.1462 13.1612C33.3432 12.8537 33.4417 12.5053 33.4417 12.116V10.9411C33.3456 11.0036 33.2134 11.0612 33.0452 11.1141C32.8819 11.1621 32.6968 11.2078 32.4902 11.251C32.2836 11.2895 32.0769 11.3255 31.8703 11.3592C31.6637 11.388 31.4762 11.4144 31.308 11.4385C30.9476 11.4913 30.6329 11.5754 30.3638 11.6908C30.0947 11.8061 29.8856 11.9623 29.7366 12.1593C29.5877 12.3515 29.5132 12.5918 29.5132 12.8801C29.5132 13.2982 29.6646 13.6178 29.9673 13.8388C30.2749 14.0551 30.6641 14.1632 31.1351 14.1632Z" fill="white"/>
<path d="M22.7915 9.31202V11.7268H17.0104V9.31202H22.7915ZM18.0196 5.00146V16.0734H15.0858V5.00146H18.0196ZM24.7161 5.00146V16.0734H21.8039V5.00146H24.7161Z" fill="white"/>
<path d="M6.46829 16.2824C5.76188 16.2824 5.13236 16.1599 4.57972 15.9148C4.02709 15.6649 3.58979 15.2973 3.26782 14.8119C2.95065 14.3218 2.79207 13.7115 2.79207 12.981C2.79207 12.3659 2.905 11.8493 3.13086 11.4313C3.35672 11.0132 3.66427 10.6768 4.05352 10.4221C4.44277 10.1674 4.88487 9.97518 5.37984 9.84543C5.87962 9.71568 6.40342 9.62438 6.95125 9.57152C7.59519 9.50424 8.11418 9.44177 8.50824 9.3841C8.90229 9.32163 9.18822 9.23032 9.36602 9.11019C9.54383 8.99005 9.63273 8.81224 9.63273 8.57677V8.53352C9.63273 8.077 9.48856 7.72379 9.20023 7.47391C8.91671 7.22402 8.51304 7.09907 7.98924 7.09907C7.43661 7.09907 6.9969 7.22162 6.67013 7.4667C6.34335 7.70697 6.1271 8.00972 6.02138 8.37494L3.18132 8.14428C3.32548 7.4715 3.60901 6.89003 4.03189 6.39987C4.45478 5.9049 5.00021 5.52527 5.66817 5.26096C6.34095 4.99185 7.11944 4.8573 8.00366 4.8573C8.61876 4.8573 9.20744 4.92938 9.76969 5.07355C10.3367 5.21771 10.8389 5.44117 11.2762 5.74392C11.7183 6.04667 12.0667 6.43591 12.3214 6.91166C12.5761 7.3826 12.7035 7.94725 12.7035 8.60561V16.0734H9.79131V14.538H9.70481C9.52701 14.884 9.28913 15.1892 8.99119 15.4535C8.69325 15.713 8.33524 15.9172 7.91716 16.0662C7.49908 16.2103 7.01612 16.2824 6.46829 16.2824ZM7.3477 14.1632C7.79942 14.1632 8.19828 14.0743 8.54428 13.8965C8.89028 13.7139 9.16179 13.4688 9.35881 13.1612C9.55584 12.8537 9.65435 12.5053 9.65435 12.116V10.9411C9.55824 11.0036 9.42609 11.0612 9.2579 11.1141C9.09451 11.1621 8.9095 11.2078 8.70286 11.251C8.49622 11.2895 8.28959 11.3255 8.08295 11.3592C7.87631 11.388 7.6889 11.4144 7.5207 11.4385C7.16029 11.4913 6.84553 11.5754 6.57642 11.6908C6.30731 11.8061 6.09827 11.9623 5.9493 12.1593C5.80033 12.3515 5.72584 12.5918 5.72584 12.8801C5.72584 13.2982 5.87721 13.6178 6.17996 13.8388C6.48752 14.0551 6.87676 14.1632 7.3477 14.1632Z" fill="white"/>
<path d="M80.9281 89.8999C79.7892 89.8999 78.8088 89.6692 77.9871 89.2079C77.1702 88.7417 76.5406 88.0834 76.0985 87.2328C75.6564 86.3774 75.4354 85.3659 75.4354 84.1981C75.4354 83.0592 75.6564 82.0597 76.0985 81.1995C76.5406 80.3393 77.163 79.6689 77.9655 79.1884C78.7728 78.7078 79.7195 78.4675 80.8055 78.4675C81.536 78.4675 82.216 78.5853 82.8455 78.8207C83.4798 79.0514 84.0325 79.3998 84.5034 79.8659C84.9791 80.3321 85.3492 80.9183 85.6135 81.6248C85.8778 82.3264 86.0099 83.1481 86.0099 84.09V84.9334H76.6608V83.0304H83.1194C83.1194 82.5883 83.0233 82.1966 82.8311 81.8554C82.6389 81.5142 82.3721 81.2475 82.031 81.0553C81.6946 80.8583 81.3029 80.7598 80.856 80.7598C80.3899 80.7598 79.9766 80.8679 79.6162 81.0841C79.2606 81.2956 78.9818 81.5815 78.78 81.9419C78.5782 82.2975 78.4749 82.694 78.4701 83.1313V84.9406C78.4701 85.4884 78.571 85.9617 78.7728 86.3606C78.9794 86.7595 79.2702 87.067 79.645 87.2833C80.0198 87.4995 80.4643 87.6076 80.9785 87.6076C81.3197 87.6076 81.6321 87.5596 81.9156 87.4635C82.1991 87.3674 82.4418 87.2232 82.6437 87.031C82.8455 86.8387 82.9993 86.6033 83.105 86.3246L85.9451 86.512C85.8009 87.1944 85.5053 87.7902 85.0584 88.2996C84.6163 88.8042 84.0445 89.1983 83.3429 89.4818C82.6461 89.7605 81.8411 89.8999 80.9281 89.8999Z" fill="#2E9E9A"/>
<path d="M68.9713 89.8999C67.8372 89.8999 66.8617 89.6596 66.0448 89.179C65.2326 88.6937 64.6079 88.0209 64.1706 87.1607C63.7381 86.3005 63.5219 85.3106 63.5219 84.1909C63.5219 83.0568 63.7405 82.0621 64.1778 81.2067C64.6199 80.3465 65.247 79.6761 66.0592 79.1956C66.8713 78.7102 67.8372 78.4675 68.9569 78.4675C69.9228 78.4675 70.7686 78.6429 71.4942 78.9937C72.2199 79.3445 72.7941 79.8371 73.217 80.4714C73.6399 81.1058 73.873 81.8506 73.9162 82.706H71.0185C70.9368 82.1534 70.7205 81.7089 70.3697 81.3725C70.0237 81.0313 69.5696 80.8607 69.0074 80.8607C68.5316 80.8607 68.1159 80.9904 67.7603 81.2499C67.4095 81.5046 67.1356 81.877 66.9386 82.3672C66.7416 82.8574 66.6431 83.4509 66.6431 84.1477C66.6431 84.8541 66.7392 85.4548 66.9314 85.9497C67.1284 86.4447 67.4047 86.8219 67.7603 87.0814C68.1159 87.3409 68.5316 87.4707 69.0074 87.4707C69.3582 87.4707 69.6729 87.3986 69.9517 87.2544C70.2352 87.1103 70.4682 86.9012 70.6509 86.6273C70.8383 86.3486 70.9608 86.0146 71.0185 85.6254H73.9162C73.8682 86.4711 73.6375 87.216 73.2242 87.8599C72.8157 88.4991 72.2511 88.9988 71.5303 89.3592C70.8094 89.7197 69.9565 89.8999 68.9713 89.8999Z" fill="#2E9E9A"/>
<path d="M58.4382 89.6837V78.6118H61.509V89.6837H58.4382ZM59.9808 77.1845C59.5243 77.1845 59.1326 77.0332 58.8058 76.7304C58.4839 76.4229 58.3229 76.0552 58.3229 75.6275C58.3229 75.2047 58.4839 74.8418 58.8058 74.5391C59.1326 74.2315 59.5243 74.0778 59.9808 74.0778C60.4373 74.0778 60.8266 74.2315 61.1485 74.5391C61.4753 74.8418 61.6387 75.2047 61.6387 75.6275C61.6387 76.0552 61.4753 76.4229 61.1485 76.7304C60.8266 77.0332 60.4373 77.1845 59.9808 77.1845Z" fill="#2E9E9A"/>
<path d="M56.4379 78.6118V80.9184H49.7703V78.6118H56.4379ZM51.284 75.9591H54.3547V86.2814C54.3547 86.5649 54.398 86.7859 54.4845 86.9445C54.571 87.0983 54.6911 87.2064 54.8449 87.2689C55.0035 87.3314 55.1861 87.3626 55.3927 87.3626C55.5369 87.3626 55.6811 87.3506 55.8252 87.3266C55.9694 87.2977 56.0799 87.2761 56.1568 87.2617L56.6398 89.5467C56.486 89.5948 56.2697 89.65 55.991 89.7125C55.7123 89.7798 55.3735 89.8206 54.9747 89.8351C54.2346 89.8639 53.5859 89.7654 53.0284 89.5395C52.4758 89.3137 52.0457 88.9628 51.7381 88.4871C51.4306 88.0114 51.2792 87.4107 51.284 86.685V75.9591Z" fill="#2E9E9A"/>
<path d="M45.0182 89.6837V78.6118H48.0889V89.6837H45.0182ZM46.5608 77.1845C46.1043 77.1845 45.7126 77.0332 45.3858 76.7304C45.0639 76.4229 44.9029 76.0552 44.9029 75.6275C44.9029 75.2047 45.0639 74.8418 45.3858 74.5391C45.7126 74.2315 46.1043 74.0778 46.5608 74.0778C47.0173 74.0778 47.4066 74.2315 47.7285 74.5391C48.0553 74.8418 48.2187 75.2047 48.2187 75.6275C48.2187 76.0552 48.0553 76.4229 47.7285 76.7304C47.4066 77.0332 47.0173 77.1845 46.5608 77.1845Z" fill="#2E9E9A"/>
<path d="M42.5584 74.9211V89.6837H39.4877V74.9211H42.5584Z" fill="#2E9E9A"/>
<path d="M30.8701 89.8927C30.1637 89.8927 29.5342 89.7701 28.9816 89.525C28.4289 89.2751 27.9916 88.9075 27.6697 88.4222C27.3525 87.932 27.1939 87.3217 27.1939 86.5913C27.1939 85.9762 27.3069 85.4596 27.5327 85.0415C27.7586 84.6234 28.0661 84.287 28.4554 84.0323C28.8446 83.7776 29.2867 83.5854 29.7817 83.4557C30.2815 83.3259 30.8053 83.2346 31.3531 83.1817C31.997 83.1145 32.516 83.052 32.9101 82.9943C33.3041 82.9319 33.5901 82.8406 33.7679 82.7204C33.9457 82.6003 34.0346 82.4225 34.0346 82.187V82.1438C34.0346 81.6872 33.8904 81.334 33.6021 81.0841C33.3186 80.8342 32.9149 80.7093 32.3911 80.7093C31.8385 80.7093 31.3988 80.8318 31.072 81.0769C30.7452 81.3172 30.529 81.62 30.4232 81.9852L27.5832 81.7545C27.7273 81.0817 28.0109 80.5003 28.4337 80.0101C28.8566 79.5151 29.4021 79.1355 30.07 78.8712C30.7428 78.6021 31.5213 78.4675 32.4055 78.4675C33.0206 78.4675 33.6093 78.5396 34.1715 78.6838C34.7386 78.8279 35.2408 79.0514 35.6781 79.3541C36.1202 79.6569 36.4686 80.0461 36.7233 80.5219C36.978 80.9928 37.1053 81.5575 37.1053 82.2158V89.6836H34.1932V88.1483H34.1067C33.9289 88.4942 33.691 88.7994 33.393 89.0637C33.0951 89.3232 32.7371 89.5274 32.319 89.6764C31.9009 89.8206 31.418 89.8927 30.8701 89.8927ZM31.7496 87.7734C32.2013 87.7734 32.6001 87.6845 32.9461 87.5067C33.2921 87.3241 33.5636 87.079 33.7607 86.7715C33.9577 86.4639 34.0562 86.1155 34.0562 85.7263V84.5513C33.9601 84.6138 33.8279 84.6715 33.6598 84.7243C33.4964 84.7724 33.3114 84.818 33.1047 84.8613C32.8981 84.8997 32.6914 84.9358 32.4848 84.9694C32.2782 84.9982 32.0908 85.0247 31.9226 85.0487C31.5621 85.1016 31.2474 85.1856 30.9783 85.301C30.7092 85.4163 30.5001 85.5725 30.3512 85.7695C30.2022 85.9617 30.1277 86.202 30.1277 86.4903C30.1277 86.9084 30.2791 87.228 30.5818 87.449C30.8894 87.6653 31.2786 87.7734 31.7496 87.7734Z" fill="#2E9E9A"/>
<path d="M18.1565 83.2827V89.6836H15.0858V78.6117H18.0124V80.5651H18.1421C18.3872 79.9212 18.7981 79.4118 19.3747 79.037C19.9514 78.6573 20.6506 78.4675 21.4724 78.4675C22.2412 78.4675 22.9116 78.6357 23.4835 78.9721C24.0553 79.3085 24.4998 79.789 24.817 80.4138C25.1342 81.0337 25.2927 81.7737 25.2927 82.6339V89.6836H22.222V83.1817C22.2268 82.5042 22.0538 81.9756 21.703 81.5959C21.3522 81.2115 20.8693 81.0193 20.2542 81.0193C19.8409 81.0193 19.4757 81.1082 19.1585 81.286C18.8461 81.4638 18.6011 81.7233 18.4233 82.0645C18.2503 82.4008 18.1614 82.8069 18.1565 83.2827Z" fill="#2E9E9A"/>
<path d="M6.46831 89.8927C5.7619 89.8927 5.13237 89.7701 4.57974 89.525C4.0271 89.2751 3.5898 88.9075 3.26783 88.4222C2.95067 87.932 2.79208 87.3217 2.79208 86.5913C2.79208 85.9762 2.90501 85.4596 3.13087 85.0415C3.35673 84.6234 3.66429 84.287 4.05353 84.0323C4.44278 83.7776 4.88489 83.5854 5.37986 83.4557C5.87963 83.3259 6.40343 83.2346 6.95126 83.1817C7.5952 83.1145 8.1142 83.052 8.50825 82.9943C8.90231 82.9319 9.18823 82.8406 9.36604 82.7204C9.54384 82.6003 9.63274 82.4225 9.63274 82.187V82.1438C9.63274 81.6872 9.48858 81.334 9.20025 81.0841C8.91672 80.8342 8.51306 80.7093 7.98926 80.7093C7.43662 80.7093 6.99692 80.8318 6.67014 81.0769C6.34336 81.3172 6.12712 81.62 6.02139 81.9852L3.18133 81.7545C3.3255 81.0817 3.60902 80.5003 4.03191 80.0101C4.45479 79.5151 5.00022 79.1355 5.66819 78.8712C6.34096 78.6021 7.11946 78.4675 8.00367 78.4675C8.61878 78.4675 9.20746 78.5396 9.7697 78.6838C10.3368 78.8279 10.8389 79.0514 11.2762 79.3541C11.7183 79.6569 12.0667 80.0461 12.3214 80.5219C12.5761 80.9928 12.7035 81.5575 12.7035 82.2158V89.6836H9.79133V88.1483H9.70483C9.52702 88.4942 9.28915 88.7994 8.99121 89.0637C8.69327 89.3232 8.33525 89.5274 7.91717 89.6764C7.49909 89.8206 7.01614 89.8927 6.46831 89.8927ZM7.34772 87.7734C7.79944 87.7734 8.1983 87.6845 8.54429 87.5067C8.89029 87.3241 9.1618 87.079 9.35883 86.7715C9.55586 86.4639 9.65437 86.1155 9.65437 85.7263V84.5513C9.55826 84.6138 9.42611 84.6715 9.25791 84.7243C9.09453 84.7724 8.90951 84.818 8.70288 84.8613C8.49624 84.8997 8.2896 84.9358 8.08296 84.9694C7.87633 84.9982 7.68891 85.0247 7.52072 85.0487C7.1603 85.1016 6.84554 85.1856 6.57643 85.301C6.30732 85.4163 6.09828 85.5725 5.94931 85.7695C5.80034 85.9617 5.72586 86.202 5.72586 86.4903C5.72586 86.9084 5.87723 87.228 6.17998 87.449C6.48753 87.6653 6.87678 87.7734 7.34772 87.7734Z" fill="#2E9E9A"/>
<path d="M78.9404 114.429C78.234 114.429 77.6045 114.307 77.0518 114.062C76.4992 113.812 76.0619 113.444 75.7399 112.959C75.4227 112.469 75.2642 111.858 75.2642 111.128C75.2642 110.513 75.3771 109.996 75.603 109.578C75.8288 109.16 76.1364 108.824 76.5256 108.569C76.9149 108.314 77.357 108.122 77.8519 107.992C78.3517 107.863 78.8755 107.771 79.4233 107.718C80.0673 107.651 80.5863 107.589 80.9803 107.531C81.3744 107.469 81.6603 107.377 81.8381 107.257C82.0159 107.137 82.1048 106.959 82.1048 106.724V106.68C82.1048 106.224 81.9607 105.871 81.6723 105.621C81.3888 105.371 80.9851 105.246 80.4613 105.246C79.9087 105.246 79.469 105.369 79.1422 105.614C78.8154 105.854 78.5992 106.157 78.4935 106.522L75.6534 106.291C75.7976 105.618 76.0811 105.037 76.504 104.547C76.9269 104.052 77.4723 103.672 78.1403 103.408C78.813 103.139 79.5915 103.004 80.4757 103.004C81.0909 103.004 81.6795 103.076 82.2418 103.221C82.8088 103.365 83.311 103.588 83.7483 103.891C84.1904 104.194 84.5388 104.583 84.7935 105.059C85.0482 105.53 85.1755 106.094 85.1755 106.753V114.22H82.2634V112.685H82.1769C81.9991 113.031 81.7612 113.336 81.4633 113.6C81.1653 113.86 80.8073 114.064 80.3892 114.213C79.9712 114.357 79.4882 114.429 78.9404 114.429ZM79.8198 112.31C80.2715 112.31 80.6704 112.221 81.0164 112.043C81.3624 111.861 81.6339 111.616 81.8309 111.308C82.0279 111.001 82.1265 110.652 82.1265 110.263V109.088C82.0303 109.151 81.8982 109.208 81.73 109.261C81.5666 109.309 81.3816 109.355 81.175 109.398C80.9683 109.436 80.7617 109.473 80.555 109.506C80.3484 109.535 80.161 109.561 79.9928 109.585C79.6324 109.638 79.3176 109.722 79.0485 109.838C78.7794 109.953 78.5704 110.109 78.4214 110.306C78.2724 110.498 78.1979 110.739 78.1979 111.027C78.1979 111.445 78.3493 111.765 78.6521 111.986C78.9596 112.202 79.3489 112.31 79.8198 112.31Z" fill="#F4A100"/>
<path d="M66.7512 111.034L66.7584 107.351H67.2053L70.7518 103.149H74.2766L69.512 108.713H68.7839L66.7512 111.034ZM63.9688 114.22V99.4579H67.0395V114.22H63.9688ZM70.8887 114.22L67.6306 109.398L69.6778 107.228L74.4857 114.22H70.8887Z" fill="#F4A100"/>
<path d="M58.4382 114.22V103.149H61.509V114.22H58.4382ZM59.9808 101.721C59.5243 101.721 59.1326 101.57 58.8058 101.267C58.4839 100.96 58.3229 100.592 58.3229 100.164C58.3229 99.7414 58.4839 99.3786 58.8058 99.0758C59.1326 98.7683 59.5243 98.6145 59.9808 98.6145C60.4373 98.6145 60.8266 98.7683 61.1485 99.0758C61.4753 99.3786 61.6387 99.7414 61.6387 100.164C61.6387 100.592 61.4753 100.96 61.1485 101.267C60.8266 101.57 60.4373 101.721 59.9808 101.721Z" fill="#F4A100"/>
<path d="M56.4379 103.148V105.455H49.7703V103.148H56.4379ZM51.284 100.496H54.3547V110.818C54.3547 111.102 54.398 111.323 54.4845 111.481C54.571 111.635 54.6911 111.743 54.8449 111.806C55.0035 111.868 55.1861 111.899 55.3927 111.899C55.5369 111.899 55.6811 111.887 55.8252 111.863C55.9694 111.834 56.0799 111.813 56.1568 111.798L56.6398 114.083C56.486 114.132 56.2697 114.187 55.991 114.249C55.7123 114.317 55.3735 114.357 54.9747 114.372C54.2346 114.401 53.5859 114.302 53.0284 114.076C52.4758 113.85 52.0457 113.5 51.7381 113.024C51.4306 112.548 51.2792 111.947 51.284 111.222V100.496Z" fill="#F4A100"/>
<path d="M45.0182 114.22V103.149H48.0889V114.22H45.0182ZM46.5608 101.721C46.1043 101.721 45.7126 101.57 45.3858 101.267C45.0639 100.96 44.9029 100.592 44.9029 100.164C44.9029 99.7414 45.0639 99.3786 45.3858 99.0758C45.7126 98.7683 46.1043 98.6145 46.5608 98.6145C47.0173 98.6145 47.4066 98.7683 47.7285 99.0758C48.0553 99.3786 48.2187 99.7414 48.2187 100.164C48.2187 100.592 48.0553 100.96 47.7285 101.267C47.4066 101.57 47.0173 101.721 46.5608 101.721Z" fill="#F4A100"/>
<path d="M42.5584 99.4579V114.22H39.4877V99.4579H42.5584Z" fill="#F4A100"/>
<path d="M30.8701 114.429C30.1637 114.429 29.5342 114.307 28.9816 114.062C28.4289 113.812 27.9916 113.444 27.6697 112.959C27.3525 112.469 27.1939 111.858 27.1939 111.128C27.1939 110.513 27.3069 109.996 27.5327 109.578C27.7586 109.16 28.0661 108.824 28.4554 108.569C28.8446 108.314 29.2867 108.122 29.7817 107.992C30.2815 107.863 30.8053 107.771 31.3531 107.718C31.997 107.651 32.516 107.589 32.9101 107.531C33.3041 107.469 33.5901 107.377 33.7679 107.257C33.9457 107.137 34.0346 106.959 34.0346 106.724V106.68C34.0346 106.224 33.8904 105.871 33.6021 105.621C33.3186 105.371 32.9149 105.246 32.3911 105.246C31.8385 105.246 31.3988 105.369 31.072 105.614C30.7452 105.854 30.529 106.157 30.4232 106.522L27.5832 106.291C27.7273 105.618 28.0109 105.037 28.4337 104.547C28.8566 104.052 29.4021 103.672 30.07 103.408C30.7428 103.139 31.5213 103.004 32.4055 103.004C33.0206 103.004 33.6093 103.076 34.1715 103.221C34.7386 103.365 35.2408 103.588 35.6781 103.891C36.1202 104.194 36.4686 104.583 36.7233 105.059C36.978 105.53 37.1053 106.094 37.1053 106.753V114.22H34.1932V112.685H34.1067C33.9289 113.031 33.691 113.336 33.393 113.6C33.0951 113.86 32.7371 114.064 32.319 114.213C31.9009 114.357 31.418 114.429 30.8701 114.429ZM31.7496 112.31C32.2013 112.31 32.6001 112.221 32.9461 112.043C33.2921 111.861 33.5636 111.616 33.7607 111.308C33.9577 111.001 34.0562 110.652 34.0562 110.263V109.088C33.9601 109.151 33.8279 109.208 33.6598 109.261C33.4964 109.309 33.3114 109.355 33.1047 109.398C32.8981 109.436 32.6914 109.473 32.4848 109.506C32.2782 109.535 32.0908 109.561 31.9226 109.585C31.5621 109.638 31.2474 109.722 30.9783 109.838C30.7092 109.953 30.5001 110.109 30.3512 110.306C30.2022 110.498 30.1277 110.739 30.1277 111.027C30.1277 111.445 30.2791 111.765 30.5818 111.986C30.8894 112.202 31.2786 112.31 31.7496 112.31Z" fill="#F4A100"/>
<path d="M18.1565 107.819V114.22H15.0858V103.148H18.0124V105.102H18.1421C18.3872 104.458 18.7981 103.949 19.3747 103.574C19.9514 103.194 20.6506 103.004 21.4724 103.004C22.2412 103.004 22.9116 103.172 23.4835 103.509C24.0553 103.845 24.4998 104.326 24.817 104.951C25.1342 105.57 25.2927 106.31 25.2927 107.171V114.22H22.222V107.718C22.2268 107.041 22.0538 106.512 21.703 106.133C21.3522 105.748 20.8693 105.556 20.2542 105.556C19.8409 105.556 19.4757 105.645 19.1585 105.823C18.8461 106.001 18.6011 106.26 18.4233 106.601C18.2503 106.938 18.1614 107.344 18.1565 107.819Z" fill="#F4A100"/>
<path d="M6.46831 114.429C5.7619 114.429 5.13237 114.307 4.57974 114.062C4.0271 113.812 3.5898 113.444 3.26783 112.959C2.95067 112.469 2.79208 111.858 2.79208 111.128C2.79208 110.513 2.90501 109.996 3.13087 109.578C3.35673 109.16 3.66429 108.824 4.05353 108.569C4.44278 108.314 4.88489 108.122 5.37986 107.992C5.87963 107.863 6.40343 107.771 6.95126 107.718C7.5952 107.651 8.1142 107.589 8.50825 107.531C8.90231 107.469 9.18823 107.377 9.36604 107.257C9.54384 107.137 9.63274 106.959 9.63274 106.724V106.68C9.63274 106.224 9.48858 105.871 9.20025 105.621C8.91672 105.371 8.51306 105.246 7.98926 105.246C7.43662 105.246 6.99692 105.369 6.67014 105.614C6.34336 105.854 6.12712 106.157 6.02139 106.522L3.18133 106.291C3.3255 105.618 3.60902 105.037 4.03191 104.547C4.45479 104.052 5.00022 103.672 5.66819 103.408C6.34096 103.139 7.11946 103.004 8.00367 103.004C8.61878 103.004 9.20746 103.076 9.7697 103.221C10.3368 103.365 10.8389 103.588 11.2762 103.891C11.7183 104.194 12.0667 104.583 12.3214 105.059C12.5761 105.53 12.7035 106.094 12.7035 106.753V114.22H9.79133V112.685H9.70483C9.52702 113.031 9.28915 113.336 8.99121 113.6C8.69327 113.86 8.33525 114.064 7.91717 114.213C7.49909 114.357 7.01614 114.429 6.46831 114.429ZM7.34772 112.31C7.79944 112.31 8.1983 112.221 8.54429 112.043C8.89029 111.861 9.1618 111.616 9.35883 111.308C9.55586 111.001 9.65437 110.652 9.65437 110.263V109.088C9.55826 109.151 9.42611 109.208 9.25791 109.261C9.09453 109.309 8.90951 109.355 8.70288 109.398C8.49624 109.436 8.2896 109.473 8.08296 109.506C7.87633 109.535 7.68891 109.561 7.52072 109.585C7.1603 109.638 6.84554 109.722 6.57643 109.838C6.30732 109.953 6.09828 110.109 5.94931 110.306C5.80034 110.498 5.72586 110.739 5.72586 111.027C5.72586 111.445 5.87723 111.765 6.17998 111.986C6.48753 112.202 6.87678 112.31 7.34772 112.31Z" fill="#F4A100"/>
<path d="M33.2845 201.995H42.1144V204.289H33.2845V201.995ZM32.0463 196.555L34.949 197.367C34.9287 197.55 34.7866 197.671 34.4212 197.732V202.502C34.4212 205.75 34.0558 210.804 31.417 214.174C31.072 213.646 30.1382 212.855 29.5496 212.57C31.823 209.587 32.0463 205.486 32.0463 202.462V196.555ZM39.4146 195.337L41.4648 197.245C39.1305 198.24 36.0248 198.95 33.3454 199.376C33.2236 198.808 32.8582 197.895 32.5537 197.387C35.0505 196.9 37.7502 196.149 39.4146 195.337ZM37.06 202.705H39.4755V214.174H37.06V202.705ZM23.2773 199.316H30.869V201.63H23.2773V199.316ZM26.0785 195.134H28.4128V214.194H26.0785V195.134ZM25.9567 200.879L27.3979 201.386C26.7484 204.654 25.4696 208.592 23.9066 210.683C23.6833 210.013 23.1149 209.018 22.7496 208.409C24.1502 206.643 25.429 203.477 25.9567 200.879ZM28.2302 202.665C28.7579 203.233 30.6863 205.73 31.0923 206.319L29.7322 208.247C29.1842 207.029 27.8039 204.776 27.1137 203.761L28.2302 202.665Z" fill="#9B5E26"/>
<path d="M6.02356 202.584H17.0051V204.959H6.02356V202.584ZM16.2134 202.584H18.771C18.771 202.584 18.7507 203.335 18.7304 203.639C18.5072 209.81 18.2636 212.225 17.5531 213.058C17.0457 213.748 16.4773 213.93 15.706 214.052C14.9955 214.154 13.8182 214.133 12.6206 214.093C12.58 213.382 12.2552 212.327 11.8086 211.637C12.9454 211.738 14.0009 211.759 14.5083 211.759C14.8737 211.759 15.097 211.698 15.3203 211.474C15.8075 210.947 16.0307 208.673 16.2134 203.03V202.584ZM8.3173 195.398L10.9561 196.169C9.43372 199.701 6.9573 202.969 4.39968 204.979C3.93282 204.451 2.87729 203.477 2.28864 203.01C4.84625 201.325 7.09939 198.483 8.3173 195.398ZM16.051 195.357C17.3298 197.935 19.8875 200.899 22.1203 202.604C21.4504 203.132 20.5167 204.126 20.0498 204.816C17.7561 202.705 15.2594 199.417 13.6558 196.311L16.051 195.357ZM9.657 203.274H12.2958C11.9101 207.841 11.0373 212.083 4.98834 214.336C4.68386 213.667 3.97341 212.631 3.40505 212.104C8.84506 210.317 9.33222 206.887 9.657 203.274Z" fill="#9B5E26"/>
<path d="M40.2437 172.485H51.3064V174.616H40.2437V172.485ZM45.7852 175.205C48.4849 175.205 50.393 176.606 50.393 178.676C50.393 180.747 48.4849 182.127 45.7852 182.127C43.0652 182.127 41.1571 180.747 41.1571 178.676C41.1571 176.606 43.0652 175.205 45.7852 175.205ZM45.7852 177.235C44.5673 177.235 43.7553 177.722 43.7553 178.676C43.7553 179.61 44.5673 180.097 45.7852 180.097C46.9828 180.097 47.8151 179.61 47.8151 178.676C47.8151 177.722 46.9828 177.235 45.7852 177.235ZM52.3416 170.841H55.0413V182.634H52.3416V170.841ZM54.2903 175.692H57.538V177.884H54.2903V175.692ZM42.4968 183.406H55.0413V189.637H52.3416V185.557H42.4968V183.406ZM44.4252 170.739H47.1249V173.703H44.4252V170.739Z" fill="#26329B"/>
<path d="M31.1718 174.332H34.988V176.525H31.1718V174.332ZM25.8739 171.815H28.0865V173.581C28.0865 177.296 26.4423 180.523 22.8697 181.762L21.4488 179.63C24.5951 178.595 25.8739 176.119 25.8739 173.581V171.815ZM26.422 171.815H28.5939V173.744C28.5939 176.078 29.8524 178.372 32.7957 179.326L31.3951 181.437C27.985 180.259 26.422 177.215 26.422 173.744V171.815ZM24.4936 182.878H37.302V189.637H34.6023V185.009H24.4936V182.878ZM34.6023 170.841H37.302V182.025H34.6023V170.841Z" fill="#26329B"/>
<path d="M2.87729 173.662H11.8695V175.814H2.87729V173.662ZM7.40386 176.646C9.79909 176.646 11.5245 178.493 11.5245 181.132C11.5245 183.751 9.79909 185.598 7.40386 185.598C5.02893 185.598 3.28326 183.751 3.28326 181.132C3.28326 178.493 5.02893 176.646 7.40386 176.646ZM7.40386 178.899C6.38893 178.899 5.67849 179.711 5.67849 181.132C5.67849 182.553 6.38893 183.345 7.40386 183.345C8.41879 183.345 9.14953 182.553 9.14953 181.132C9.14953 179.711 8.41879 178.899 7.40386 178.899ZM16.4773 170.841H19.0552V189.637H16.4773V170.841ZM14.2242 178.473H17.3298V180.645H14.2242V178.473ZM12.5394 171.186H15.0564V188.846H12.5394V171.186ZM6.08446 171.348H8.74356V175.022H6.08446V171.348Z" fill="#26329B"/>
<path d="M66.9927 163.51C65.8538 163.51 64.8734 163.28 64.0517 162.818C63.2347 162.352 62.6052 161.694 62.1631 160.843C61.721 159.988 61.4999 158.976 61.4999 157.808C61.4999 156.67 61.721 155.67 62.1631 154.81C62.6052 153.95 63.2275 153.279 64.0301 152.799C64.8374 152.318 65.7841 152.078 66.8701 152.078C67.6006 152.078 68.2805 152.196 68.9101 152.431C69.5444 152.662 70.097 153.01 70.568 153.476C71.0437 153.942 71.4137 154.529 71.678 155.235C71.9423 155.937 72.0745 156.758 72.0745 157.7V158.544H62.7254V156.641H69.184C69.184 156.199 69.0879 155.807 68.8956 155.466C68.7034 155.125 68.4367 154.858 68.0955 154.666C67.7591 154.469 67.3675 154.37 66.9206 154.37C66.4544 154.37 66.0412 154.478 65.6808 154.694C65.3251 154.906 65.0464 155.192 64.8446 155.552C64.6428 155.908 64.5394 156.304 64.5346 156.742V158.551C64.5346 159.099 64.6356 159.572 64.8374 159.971C65.044 160.37 65.3348 160.677 65.7096 160.894C66.0844 161.11 66.5289 161.218 67.0431 161.218C67.3843 161.218 67.6967 161.17 67.9802 161.074C68.2637 160.978 68.5064 160.834 68.7082 160.641C68.9101 160.449 69.0638 160.214 69.1696 159.935L72.0096 160.122C71.8655 160.805 71.5699 161.401 71.123 161.91C70.6809 162.415 70.109 162.809 69.4074 163.092C68.7106 163.371 67.9057 163.51 66.9927 163.51Z" fill="#A600F4"/>
<path d="M59.761 155.379L56.9497 155.552C56.9017 155.312 56.7984 155.096 56.6398 154.904C56.4812 154.707 56.2721 154.55 56.0127 154.435C55.758 154.315 55.4528 154.255 55.0972 154.255C54.6215 154.255 54.2202 154.356 53.8934 154.558C53.5666 154.755 53.4033 155.019 53.4033 155.35C53.4033 155.615 53.509 155.838 53.7204 156.021C53.9319 156.203 54.2947 156.35 54.8089 156.461L56.8128 156.864C57.8892 157.085 58.6917 157.441 59.2203 157.931C59.7489 158.421 60.0133 159.065 60.0133 159.863C60.0133 160.588 59.7994 161.225 59.3717 161.773C58.9488 162.321 58.3674 162.749 57.6273 163.056C56.8921 163.359 56.0439 163.51 55.0828 163.51C53.6171 163.51 52.4494 163.205 51.5796 162.595C50.7146 161.98 50.2076 161.143 50.0586 160.086L53.0789 159.928C53.1702 160.375 53.3912 160.716 53.742 160.951C54.0928 161.182 54.5422 161.297 55.09 161.297C55.6282 161.297 56.0607 161.194 56.3875 160.987C56.7191 160.776 56.8873 160.504 56.8921 160.173C56.8873 159.894 56.7695 159.666 56.5389 159.488C56.3082 159.305 55.9526 159.166 55.472 159.07L53.5546 158.688C52.4734 158.472 51.6685 158.097 51.1399 157.563C50.6161 157.03 50.3542 156.35 50.3542 155.523C50.3542 154.812 50.5464 154.2 50.9308 153.685C51.3201 153.171 51.8655 152.775 52.5671 152.496C53.2735 152.217 54.1001 152.078 55.0467 152.078C56.4452 152.078 57.5456 152.373 58.3481 152.964C59.1555 153.556 59.6264 154.361 59.761 155.379Z" fill="#A600F4"/>
<path d="M45.0182 163.294V152.222H48.0889V163.294H45.0182ZM46.5608 150.795C46.1043 150.795 45.7126 150.644 45.3858 150.341C45.0639 150.033 44.9029 149.666 44.9029 149.238C44.9029 148.815 45.0639 148.452 45.3858 148.149C45.7126 147.842 46.1043 147.688 46.5608 147.688C47.0173 147.688 47.4066 147.842 47.7285 148.149C48.0553 148.452 48.2187 148.815 48.2187 149.238C48.2187 149.666 48.0553 150.033 47.7285 150.341C47.4066 150.644 47.0173 150.795 46.5608 150.795Z" fill="#A600F4"/>
<path d="M42.5584 148.531V163.294H39.4877V148.531H42.5584Z" fill="#A600F4"/>
<path d="M30.8701 163.503C30.1637 163.503 29.5342 163.38 28.9816 163.135C28.4289 162.885 27.9916 162.518 27.6697 162.032C27.3525 161.542 27.1939 160.932 27.1939 160.202C27.1939 159.586 27.3069 159.07 27.5327 158.652C27.7586 158.234 28.0661 157.897 28.4554 157.643C28.8446 157.388 29.2867 157.196 29.7817 157.066C30.2815 156.936 30.8053 156.845 31.3531 156.792C31.997 156.725 32.516 156.662 32.9101 156.605C33.3041 156.542 33.5901 156.451 33.7679 156.331C33.9457 156.211 34.0346 156.033 34.0346 155.797V155.754C34.0346 155.298 33.8904 154.944 33.6021 154.694C33.3186 154.445 32.9149 154.32 32.3911 154.32C31.8385 154.32 31.3988 154.442 31.072 154.687C30.7452 154.928 30.529 155.23 30.4232 155.595L27.5832 155.365C27.7273 154.692 28.0109 154.111 28.4337 153.62C28.8566 153.125 29.4021 152.746 30.07 152.482C30.7428 152.212 31.5213 152.078 32.4055 152.078C33.0206 152.078 33.6093 152.15 34.1715 152.294C34.7386 152.438 35.2408 152.662 35.6781 152.964C36.1202 153.267 36.4686 153.656 36.7233 154.132C36.978 154.603 37.1053 155.168 37.1053 155.826V163.294H34.1932V161.759H34.1067C33.9289 162.105 33.691 162.41 33.393 162.674C33.0951 162.934 32.7371 163.138 32.319 163.287C31.9009 163.431 31.418 163.503 30.8701 163.503ZM31.7496 161.384C32.2013 161.384 32.6001 161.295 32.9461 161.117C33.2921 160.934 33.5636 160.689 33.7607 160.382C33.9577 160.074 34.0562 159.726 34.0562 159.337V158.162C33.9601 158.224 33.8279 158.282 33.6598 158.335C33.4964 158.383 33.3114 158.428 33.1047 158.472C32.8981 158.51 32.6914 158.546 32.4848 158.58C32.2782 158.609 32.0908 158.635 31.9226 158.659C31.5621 158.712 31.2474 158.796 30.9783 158.911C30.7092 159.027 30.5001 159.183 30.3512 159.38C30.2022 159.572 30.1277 159.812 30.1277 160.101C30.1277 160.519 30.2791 160.838 30.5818 161.059C30.8894 161.276 31.2786 161.384 31.7496 161.384ZM31.418 150.795L32.9461 147.515H35.7862L33.5877 150.795H31.418Z" fill="#A600F4"/>
<path d="M18.1565 156.893V163.294H15.0858V152.222H18.0124V154.175H18.1421C18.3872 153.532 18.7981 153.022 19.3747 152.647C19.9514 152.268 20.6506 152.078 21.4724 152.078C22.2412 152.078 22.9116 152.246 23.4835 152.582C24.0553 152.919 24.4998 153.399 24.817 154.024C25.1342 154.644 25.2927 155.384 25.2927 156.244V163.294H22.222V156.792C22.2268 156.115 22.0538 155.586 21.703 155.206C21.3522 154.822 20.8693 154.63 20.2542 154.63C19.8409 154.63 19.4757 154.719 19.1585 154.896C18.8461 155.074 18.6011 155.334 18.4233 155.675C18.2503 156.011 18.1614 156.417 18.1565 156.893Z" fill="#A600F4"/>
<path d="M6.46831 163.503C5.7619 163.503 5.13237 163.38 4.57974 163.135C4.0271 162.885 3.5898 162.518 3.26783 162.033C2.95067 161.542 2.79208 160.932 2.79208 160.202C2.79208 159.587 2.90501 159.07 3.13087 158.652C3.35673 158.234 3.66429 157.897 4.05353 157.643C4.44278 157.388 4.88489 157.196 5.37986 157.066C5.87963 156.936 6.40343 156.845 6.95126 156.792C7.5952 156.725 8.1142 156.662 8.50825 156.605C8.90231 156.542 9.18823 156.451 9.36604 156.331C9.54384 156.211 9.63274 156.033 9.63274 155.797V155.754C9.63274 155.298 9.48858 154.944 9.20025 154.694C8.91672 154.445 8.51306 154.32 7.98926 154.32C7.43662 154.32 6.99692 154.442 6.67014 154.687C6.34336 154.928 6.12712 155.23 6.02139 155.596L3.18133 155.365C3.3255 154.692 3.60902 154.111 4.03191 153.62C4.45479 153.125 5.00022 152.746 5.66819 152.482C6.34096 152.212 7.11946 152.078 8.00367 152.078C8.61878 152.078 9.20746 152.15 9.7697 152.294C10.3368 152.438 10.8389 152.662 11.2762 152.964C11.7183 153.267 12.0667 153.656 12.3214 154.132C12.5761 154.603 12.7035 155.168 12.7035 155.826V163.294H9.79133V161.759H9.70483C9.52702 162.105 9.28915 162.41 8.99121 162.674C8.69327 162.934 8.33525 163.138 7.91717 163.287C7.49909 163.431 7.01614 163.503 6.46831 163.503ZM7.34772 161.384C7.79944 161.384 8.1983 161.295 8.54429 161.117C8.89029 160.934 9.1618 160.689 9.35883 160.382C9.55586 160.074 9.65437 159.726 9.65437 159.337V158.162C9.55826 158.224 9.42611 158.282 9.25791 158.335C9.09453 158.383 8.90951 158.428 8.70288 158.472C8.49624 158.51 8.2896 158.546 8.08296 158.58C7.87633 158.609 7.68891 158.635 7.52072 158.659C7.1603 158.712 6.84554 158.796 6.57643 158.911C6.30732 159.027 6.09828 159.183 5.94931 159.38C5.80034 159.572 5.72586 159.812 5.72586 160.101C5.72586 160.519 5.87723 160.838 6.17998 161.059C6.48753 161.276 6.87678 161.384 7.34772 161.384Z" fill="#A600F4"/>
<path d="M77.1708 36.5591L81.1569 29.5382H84.1844V40.6101H81.2578V33.5676L77.2861 40.6101H74.237V29.5382H77.1708V36.5591Z" fill="#E94E43"/>
<path d="M62.983 37.4745H65.9601C65.9745 37.8397 66.1379 38.1281 66.4502 38.3395C66.7626 38.551 67.1663 38.6567 67.6612 38.6567C68.161 38.6567 68.5815 38.5414 68.9227 38.3107C69.2639 38.0752 69.4345 37.7388 69.4345 37.3015C69.4345 37.0324 69.3672 36.7994 69.2326 36.6023C69.0981 36.4005 68.9107 36.2419 68.6704 36.1266C68.4301 36.0112 68.1514 35.9536 67.8342 35.9536H66.2412V33.9425H67.8342C68.31 33.9425 68.6752 33.8319 68.9299 33.6109C69.1894 33.3898 69.3191 33.1135 69.3191 32.7819C69.3191 32.4071 69.1846 32.1068 68.9155 31.8809C68.6512 31.6502 68.2931 31.5349 67.8414 31.5349C67.3849 31.5349 67.0053 31.6382 66.7025 31.8449C66.4046 32.0467 66.2508 32.311 66.2412 32.6378H63.2786C63.2882 31.9746 63.4876 31.4003 63.8769 30.915C64.2709 30.4296 64.7995 30.0548 65.4627 29.7905C66.1307 29.5262 66.8779 29.394 67.7045 29.394C68.6079 29.394 69.3864 29.5214 70.04 29.7761C70.6983 30.026 71.2029 30.384 71.5537 30.8501C71.9093 31.3163 72.0871 31.8713 72.0871 32.5152C72.0871 33.1015 71.8949 33.5917 71.5104 33.9857C71.126 34.3798 70.5878 34.6609 69.8958 34.8291V34.9444C70.3523 34.9733 70.7656 35.0958 71.1356 35.312C71.5056 35.5283 71.8012 35.8262 72.0222 36.2059C72.2433 36.5807 72.3538 37.0252 72.3538 37.5394C72.3538 38.2266 72.152 38.8153 71.7483 39.3054C71.3495 39.7956 70.7968 40.1728 70.0904 40.4371C69.3888 40.6966 68.5839 40.8264 67.6756 40.8264C66.7914 40.8264 65.9985 40.699 65.2969 40.4443C64.6001 40.1848 64.0451 39.8052 63.6318 39.3054C63.2233 38.8057 63.0071 38.1954 62.983 37.4745Z" fill="#E94E43"/>
<path d="M54.0772 36.5591L58.0634 29.5382H61.0909V40.6101H58.1643V33.5676L54.1926 40.6101H51.1434V29.5382H54.0772V36.5591Z" fill="#E94E43"/>
<path d="M38.2244 40.6101L38.21 38.1737H38.5776C38.8371 38.1737 39.0606 38.1113 39.248 37.9863C39.4402 37.8566 39.5988 37.6475 39.7237 37.3592C39.8487 37.0709 39.9472 36.6888 40.0193 36.2131C40.0913 35.7325 40.1394 35.1414 40.1634 34.4398L40.3436 29.5382H48.7629V40.6101H45.8363V31.953H43.1044L42.9314 35.3337C42.8882 36.2611 42.7752 37.0588 42.5926 37.7268C42.4148 38.3948 42.1673 38.9426 41.8502 39.3703C41.533 39.7932 41.151 40.1056 40.704 40.3074C40.2571 40.5092 39.7381 40.6101 39.1471 40.6101H38.2244Z" fill="#E94E43"/>
<path d="M30.2556 40.8192C29.5492 40.8192 28.9197 40.6966 28.3671 40.4515C27.8144 40.2017 27.3771 39.834 27.0552 39.3487C26.738 38.8585 26.5794 38.2482 26.5794 37.5178C26.5794 36.9027 26.6923 36.3861 26.9182 35.968C27.1441 35.5499 27.4516 35.2135 27.8409 34.9588C28.2301 34.7041 28.6722 34.5119 29.1672 34.3822C29.667 34.2524 30.1908 34.1611 30.7386 34.1083C31.3825 34.041 31.9015 33.9785 32.2956 33.9208C32.6896 33.8584 32.9756 33.7671 33.1534 33.6469C33.3312 33.5268 33.4201 33.349 33.4201 33.1135V33.0703C33.4201 32.6137 33.2759 32.2605 32.9876 32.0106C32.7041 31.7608 32.3004 31.6358 31.7766 31.6358C31.224 31.6358 30.7842 31.7584 30.4575 32.0034C30.1307 32.2437 29.9144 32.5465 29.8087 32.9117L26.9687 32.681C27.1128 32.0082 27.3964 31.4268 27.8192 30.9366C28.2421 30.4416 28.7876 30.062 29.4555 29.7977C30.1283 29.5286 30.9068 29.394 31.791 29.394C32.4061 29.394 32.9948 29.4661 33.557 29.6103C34.1241 29.7545 34.6263 29.9779 35.0636 30.2807C35.5057 30.5834 35.8541 30.9727 36.1088 31.4484C36.3635 31.9193 36.4908 32.484 36.4908 33.1423V40.6101H33.5787V39.0748H33.4922C33.3144 39.4208 33.0765 39.7259 32.7785 39.9902C32.4806 40.2497 32.1226 40.454 31.7045 40.6029C31.2864 40.7471 30.8035 40.8192 30.2556 40.8192ZM31.1351 38.6999C31.5868 38.6999 31.9856 38.611 32.3316 38.4332C32.6776 38.2506 32.9491 38.0055 33.1462 37.698C33.3432 37.3904 33.4417 37.042 33.4417 36.6528V35.4778C33.3456 35.5403 33.2134 35.598 33.0452 35.6508C32.8819 35.6989 32.6968 35.7445 32.4902 35.7878C32.2836 35.8262 32.0769 35.8623 31.8703 35.8959C31.6637 35.9247 31.4762 35.9512 31.308 35.9752C30.9476 36.0281 30.6329 36.1122 30.3638 36.2275C30.0947 36.3428 29.8856 36.499 29.7366 36.696C29.5877 36.8883 29.5132 37.1285 29.5132 37.4169C29.5132 37.8349 29.6646 38.1545 29.9673 38.3756C30.2749 38.5918 30.6641 38.6999 31.1351 38.6999Z" fill="#E94E43"/>
<path d="M22.7915 33.8488V36.2635H17.0104V33.8488H22.7915ZM18.0196 29.5382V40.6101H15.0858V29.5382H18.0196ZM24.7161 29.5382V40.6101H21.8039V29.5382H24.7161Z" fill="#E94E43"/>
<path d="M6.46829 40.8192C5.76188 40.8192 5.13236 40.6966 4.57972 40.4515C4.02709 40.2017 3.58979 39.834 3.26782 39.3487C2.95065 38.8585 2.79207 38.2482 2.79207 37.5178C2.79207 36.9027 2.905 36.3861 3.13086 35.968C3.35672 35.5499 3.66427 35.2135 4.05352 34.9588C4.44277 34.7041 4.88487 34.5119 5.37984 34.3822C5.87962 34.2524 6.40342 34.1611 6.95125 34.1083C7.59519 34.041 8.11418 33.9785 8.50824 33.9208C8.90229 33.8584 9.18822 33.7671 9.36602 33.6469C9.54383 33.5268 9.63273 33.349 9.63273 33.1135V33.0703C9.63273 32.6137 9.48856 32.2605 9.20023 32.0106C8.91671 31.7608 8.51304 31.6358 7.98924 31.6358C7.43661 31.6358 6.9969 31.7584 6.67013 32.0034C6.34335 32.2437 6.1271 32.5465 6.02138 32.9117L3.18132 32.681C3.32548 32.0082 3.60901 31.4268 4.03189 30.9366C4.45478 30.4416 5.00021 30.062 5.66817 29.7977C6.34095 29.5286 7.11944 29.394 8.00366 29.394C8.61876 29.394 9.20744 29.4661 9.76969 29.6103C10.3367 29.7545 10.8389 29.9779 11.2762 30.2807C11.7183 30.5834 12.0667 30.9727 12.3214 31.4484C12.5761 31.9193 12.7035 32.484 12.7035 33.1423V40.6101H9.79131V39.0748H9.70481C9.52701 39.4208 9.28913 39.7259 8.99119 39.9902C8.69325 40.2497 8.33524 40.454 7.91716 40.6029C7.49908 40.7471 7.01612 40.8192 6.46829 40.8192ZM7.3477 38.6999C7.79942 38.6999 8.19828 38.611 8.54428 38.4332C8.89028 38.2506 9.16179 38.0055 9.35881 37.698C9.55584 37.3904 9.65435 37.042 9.65435 36.6528V35.4778C9.55824 35.5403 9.42609 35.598 9.2579 35.6508C9.09451 35.6989 8.9095 35.7445 8.70286 35.7878C8.49622 35.8262 8.28959 35.8623 8.08295 35.8959C7.87631 35.9247 7.6889 35.9512 7.5207 35.9752C7.16029 36.0281 6.84553 36.1122 6.57642 36.2275C6.30731 36.3428 6.09827 36.499 5.9493 36.696C5.80033 36.8883 5.72584 37.1285 5.72584 37.4169C5.72584 37.8349 5.87721 38.1545 6.17996 38.3756C6.48752 38.5918 6.87676 38.6999 7.3477 38.6999Z" fill="#E94E43"/>
<path d="M76.8986 138.966C76.1922 138.966 75.5627 138.844 75.0101 138.599C74.4574 138.349 74.0201 137.981 73.6982 137.496C73.381 137.006 73.2224 136.395 73.2224 135.665C73.2224 135.05 73.3354 134.533 73.5612 134.115C73.7871 133.697 74.0946 133.361 74.4839 133.106C74.8731 132.851 75.3152 132.659 75.8102 132.529C76.31 132.4 76.8338 132.308 77.3816 132.255C78.0255 132.188 78.5445 132.126 78.9386 132.068C79.3326 132.005 79.6186 131.914 79.7964 131.794C79.9742 131.674 80.0631 131.496 80.0631 131.261V131.217C80.0631 130.761 79.9189 130.408 79.6306 130.158C79.3471 129.908 78.9434 129.783 78.4196 129.783C77.867 129.783 77.4273 129.905 77.1005 130.151C76.7737 130.391 76.5575 130.694 76.4517 131.059L73.6117 130.828C73.7558 130.155 74.0394 129.574 74.4622 129.084C74.8851 128.589 75.4306 128.209 76.0985 127.945C76.7713 127.676 77.5498 127.541 78.434 127.541C79.0491 127.541 79.6378 127.613 80.2 127.757C80.7671 127.902 81.2693 128.125 81.7066 128.428C82.1487 128.731 82.4971 129.12 82.7518 129.595C83.0065 130.066 83.1338 130.631 83.1338 131.289V138.757H80.2217V137.222H80.1352C79.9574 137.568 79.7195 137.873 79.4215 138.137C79.1236 138.397 78.7656 138.601 78.3475 138.75C77.9294 138.894 77.4465 138.966 76.8986 138.966ZM77.7781 136.847C78.2298 136.847 78.6286 136.758 78.9746 136.58C79.3206 136.398 79.5921 136.153 79.7892 135.845C79.9862 135.538 80.0847 135.189 80.0847 134.8V133.625C79.9886 133.687 79.8564 133.745 79.6883 133.798C79.5249 133.846 79.3399 133.892 79.1332 133.935C78.9266 133.973 78.7199 134.009 78.5133 134.043C78.3067 134.072 78.1192 134.098 77.9511 134.122C77.5906 134.175 77.2759 134.259 77.0068 134.375C76.7377 134.49 76.5286 134.646 76.3796 134.843C76.2307 135.035 76.1562 135.276 76.1562 135.564C76.1562 135.982 76.3076 136.302 76.6103 136.523C76.9179 136.739 77.3071 136.847 77.7781 136.847Z" fill="#269B97"/>
<path d="M65.8844 143.14C64.8896 143.14 64.0367 143.003 63.3254 142.729C62.619 142.46 62.0568 142.092 61.6387 141.626C61.2206 141.16 60.9491 140.636 60.8242 140.055L63.6642 139.673C63.7507 139.894 63.8877 140.1 64.0751 140.293C64.2625 140.485 64.51 140.639 64.8176 140.754C65.1299 140.874 65.5096 140.934 65.9565 140.934C66.6244 140.934 67.1747 140.771 67.6072 140.444C68.0445 140.122 68.2631 139.581 68.2631 138.822V136.797H68.1334C67.9988 137.104 67.797 137.395 67.5279 137.669C67.2588 137.943 66.9128 138.166 66.4899 138.339C66.067 138.512 65.5624 138.599 64.9761 138.599C64.1448 138.599 63.3879 138.406 62.7055 138.022C62.028 137.633 61.4873 137.039 61.0837 136.242C60.6848 135.439 60.4854 134.425 60.4854 133.2C60.4854 131.945 60.6896 130.898 61.0981 130.057C61.5066 129.216 62.0496 128.586 62.7272 128.168C63.4095 127.75 64.1568 127.541 64.9689 127.541C65.5888 127.541 66.1078 127.647 66.5259 127.858C66.944 128.065 67.2804 128.324 67.5351 128.637C67.7946 128.944 67.994 129.247 68.1334 129.545H68.2487V127.685H71.2978V138.865C71.2978 139.807 71.0671 140.595 70.6058 141.23C70.1445 141.864 69.5053 142.34 68.6884 142.657C67.8763 142.979 66.9416 143.14 65.8844 143.14ZM65.9493 136.292C66.4442 136.292 66.8623 136.169 67.2035 135.924C67.5495 135.674 67.8138 135.319 67.9964 134.858C68.1838 134.391 68.2775 133.834 68.2775 133.185C68.2775 132.536 68.1862 131.974 68.0036 131.498C67.821 131.018 67.5567 130.646 67.2107 130.381C66.8647 130.117 66.4442 129.985 65.9493 129.985C65.4447 129.985 65.0194 130.122 64.6734 130.396C64.3274 130.665 64.0655 131.04 63.8877 131.52C63.7099 132.001 63.621 132.556 63.621 133.185C63.621 133.824 63.7099 134.377 63.8877 134.843C64.0703 135.304 64.3322 135.662 64.6734 135.917C65.0194 136.167 65.4447 136.292 65.9493 136.292Z" fill="#269B97"/>
<path d="M55.3657 138.757V127.685H58.4364V138.757H55.3657ZM56.9083 126.258C56.4517 126.258 56.0601 126.107 55.7333 125.804C55.4113 125.496 55.2504 125.129 55.2504 124.701C55.2504 124.278 55.4113 123.915 55.7333 123.613C56.0601 123.305 56.4517 123.151 56.9083 123.151C57.3648 123.151 57.754 123.305 58.076 123.613C58.4028 123.915 58.5662 124.278 58.5662 124.701C58.5662 125.129 58.4028 125.496 58.076 125.804C57.754 126.107 57.3648 126.258 56.9083 126.258Z" fill="#269B97"/>
<path d="M52.9059 123.995V138.757H49.8351V123.995H52.9059Z" fill="#269B97"/>
<path d="M44.3046 138.757V127.685H47.3753V138.757H44.3046ZM45.8471 126.258C45.3906 126.258 44.999 126.107 44.6722 125.804C44.3502 125.496 44.1892 125.129 44.1892 124.701C44.1892 124.278 44.3502 123.915 44.6722 123.613C44.999 123.305 45.3906 123.151 45.8471 123.151C46.3037 123.151 46.6929 123.305 47.0149 123.613C47.3417 123.915 47.505 124.278 47.505 124.701C47.505 125.129 47.3417 125.496 47.0149 125.804C46.6929 126.107 46.3037 126.258 45.8471 126.258Z" fill="#269B97"/>
<path d="M38.774 138.757V127.685H41.8448V138.757H38.774ZM40.3166 126.258C39.8601 126.258 39.4684 126.107 39.1416 125.804C38.8197 125.496 38.6587 125.129 38.6587 124.701C38.6587 124.278 38.8197 123.915 39.1416 123.613C39.4684 123.305 39.8601 123.151 40.3166 123.151C40.7731 123.151 41.1624 123.305 41.4843 123.613C41.8111 123.915 41.9745 124.278 41.9745 124.701C41.9745 125.129 41.8111 125.496 41.4843 125.804C41.1624 126.107 40.7731 126.258 40.3166 126.258Z" fill="#269B97"/>
<path d="M36.3142 123.995V138.757H33.2435V123.995H36.3142Z" fill="#269B97"/>
<path d="M27.7129 138.757V127.685H30.7836V138.757H27.7129ZM29.2555 126.258C28.799 126.258 28.4073 126.107 28.0805 125.804C27.7586 125.496 27.5976 125.129 27.5976 124.701C27.5976 124.278 27.7586 123.915 28.0805 123.613C28.4073 123.305 28.799 123.151 29.2555 123.151C29.712 123.151 30.1013 123.305 30.4232 123.613C30.75 123.915 30.9134 124.278 30.9134 124.701C30.9134 125.129 30.75 125.496 30.4232 125.804C30.1013 126.107 29.712 126.258 29.2555 126.258Z" fill="#269B97"/>
<path d="M22.186 134.043V127.685H25.2567V138.757H22.3085V136.746H22.1932C21.9433 137.395 21.5276 137.916 20.9462 138.31C20.3695 138.704 19.6655 138.901 18.8341 138.901C18.0941 138.901 17.4429 138.733 16.8807 138.397C16.3184 138.06 15.8787 137.582 15.5616 136.962C15.2492 136.342 15.0906 135.6 15.0858 134.735V127.685H18.1565V134.187C18.1614 134.841 18.3368 135.357 18.6827 135.737C19.0287 136.117 19.4925 136.306 20.0739 136.306C20.444 136.306 20.79 136.222 21.1119 136.054C21.4339 135.881 21.6934 135.626 21.8904 135.29C22.0923 134.954 22.1908 134.538 22.186 134.043Z" fill="#269B97"/>
<path d="M6.46831 138.966C5.7619 138.966 5.13237 138.844 4.57974 138.599C4.0271 138.349 3.5898 137.981 3.26783 137.496C2.95067 137.006 2.79208 136.395 2.79208 135.665C2.79208 135.05 2.90501 134.533 3.13087 134.115C3.35673 133.697 3.66429 133.361 4.05353 133.106C4.44278 132.851 4.88489 132.659 5.37986 132.529C5.87963 132.4 6.40343 132.308 6.95126 132.255C7.5952 132.188 8.1142 132.126 8.50825 132.068C8.90231 132.005 9.18823 131.914 9.36604 131.794C9.54384 131.674 9.63274 131.496 9.63274 131.261V131.217C9.63274 130.761 9.48858 130.408 9.20025 130.158C8.91672 129.908 8.51306 129.783 7.98926 129.783C7.43662 129.783 6.99692 129.905 6.67014 130.151C6.34336 130.391 6.12712 130.694 6.02139 131.059L3.18133 130.828C3.3255 130.155 3.60902 129.574 4.03191 129.084C4.45479 128.589 5.00022 128.209 5.66819 127.945C6.34096 127.676 7.11946 127.541 8.00367 127.541C8.61878 127.541 9.20746 127.613 9.7697 127.757C10.3368 127.902 10.8389 128.125 11.2762 128.428C11.7183 128.731 12.0667 129.12 12.3214 129.595C12.5761 130.066 12.7035 130.631 12.7035 131.289V138.757H9.79133V137.222H9.70483C9.52702 137.568 9.28915 137.873 8.99121 138.137C8.69327 138.397 8.33525 138.601 7.91717 138.75C7.49909 138.894 7.01614 138.966 6.46831 138.966ZM7.34772 136.847C7.79944 136.847 8.1983 136.758 8.54429 136.58C8.89029 136.398 9.1618 136.153 9.35883 135.845C9.55586 135.538 9.65437 135.189 9.65437 134.8V133.625C9.55826 133.687 9.42611 133.745 9.25791 133.798C9.09453 133.846 8.90951 133.892 8.70288 133.935C8.49624 133.973 8.2896 134.009 8.08296 134.043C7.87633 134.072 7.68891 134.098 7.52072 134.122C7.1603 134.175 6.84554 134.259 6.57643 134.375C6.30732 134.49 6.09828 134.646 5.94931 134.843C5.80034 135.035 5.72586 135.276 5.72586 135.564C5.72586 135.982 5.87723 136.302 6.17998 136.523C6.48753 136.739 6.87678 136.847 7.34772 136.847Z" fill="#269B97"/>
</svg>
