<svg width="238" height="79" viewBox="0 0 238 79" fill="none" xmlns="http://www.w3.org/2000/svg">
<path fill-rule="evenodd" clip-rule="evenodd" d="M52.8074 0.326172H77.0467V2.28496H54.7662V24.5655H52.8074V0.326172ZM79.032 2.3115H77.0733V24.592H54.7927V26.5508H79.032V2.3115ZM52.8074 52.7754L52.8074 28.5361H50.8486V50.8166H28.5698V52.7754H52.8074ZM50.8222 26.5508V28.5096H28.5416V50.7884H26.5828V26.5508L50.8222 26.5508ZM0.358154 52.7754L24.5992 52.7754V54.7342H2.31694V77.0147H0.358154V52.7754ZM24.624 77.0412V54.759H26.5828L26.5828 79H2.34348V77.0412H24.624ZM17.0593 60.3051L18.1702 61.4684L13.175 66.6989L12.0641 65.5357L17.0593 60.3051ZM13.175 69.0337L21.5266 60.3051L22.6297 61.4684L13.175 71.3685L8.77066 66.7567L9.88159 65.5934L13.175 69.0337ZM8.71551 71.3685L4.31117 66.7567L5.42998 65.5934L9.82644 70.2052L8.71551 71.3685Z" fill="#171B3D"/>
<path fill-rule="evenodd" clip-rule="evenodd" d="M46.5521 33.9993V45.327H44.5933V33.9993H46.5521ZM40.3539 38.2828V45.327H38.3951V38.2828H40.3539ZM34.7969 42.4712V45.327H32.8381V42.4712H34.7969Z" fill="#FF542F"/>
<path fill-rule="evenodd" clip-rule="evenodd" d="M65.057 6.94121C61.9327 6.94121 59.4 9.47391 59.4 12.5981C59.4 15.7224 61.9327 18.2551 65.057 18.2551V20.2139C60.8509 20.2139 57.4412 16.8042 57.4412 12.5981C57.4412 8.3921 60.8509 4.98242 65.057 4.98242C69.263 4.98242 72.6727 8.3921 72.6727 12.5981H70.7139C70.7139 9.47391 68.1812 6.94121 65.057 6.94121Z" fill="#171B3D"/>
<path fill-rule="evenodd" clip-rule="evenodd" d="M65.057 16.3388C67.1229 16.3388 68.7977 14.6641 68.7977 12.5981H70.7565C70.7565 15.7459 68.2047 18.2976 65.057 18.2976V16.3388Z" fill="#171B3D"/>
<path fill-rule="evenodd" clip-rule="evenodd" d="M65.057 20.1478C69.25 20.1478 72.6491 16.7488 72.6491 12.5558H74.6078C74.6078 17.8306 70.3318 22.1066 65.057 22.1066V20.1478Z" fill="#171B3D"/>
<path fill-rule="evenodd" clip-rule="evenodd" d="M66.914 12.5981C66.914 11.5726 66.0826 10.7412 65.057 10.7412L65.057 8.7824C67.1644 8.7824 68.8728 10.4908 68.8728 12.5981L66.914 12.5981Z" fill="#171B3D"/>
</svg>
