<svg width="21" height="18" viewBox="0 0 21 18" fill="none" xmlns="http://www.w3.org/2000/svg">
<mask id="path-1-inside-1_8_220" fill="white">
<path fill-rule="evenodd" clip-rule="evenodd" d="M12.8978 4.27289C12.8978 6.48203 11.1069 8.27289 8.89777 8.27289C6.68863 8.27289 4.89777 6.48203 4.89777 4.27289C4.89777 2.06375 6.68863 0.272888 8.89777 0.272888C11.1069 0.272888 12.8978 2.06375 12.8978 4.27289ZM8.89777 9.27289C9.12777 9.27289 9.34777 9.28289 9.56777 9.29289C9.14777 10.2029 8.89777 11.2029 8.89777 12.2729C8.89777 13.7629 9.36777 15.1429 10.1578 16.2729H0.897766V13.6229C0.897766 12.5929 1.40777 11.6129 2.28777 11.0929C4.21777 9.94289 6.47777 9.27289 8.89777 9.27289Z"/>
</mask>
<path d="M9.56777 9.29289L10.9297 9.92148L11.8647 7.89575L9.63588 7.79444L9.56777 9.29289ZM10.1578 16.2729V17.7729H13.0367L11.3871 15.4134L10.1578 16.2729ZM0.897766 16.2729H-0.602234V17.7729H0.897766V16.2729ZM2.28777 11.0929L3.05087 12.3843L3.05558 12.3815L2.28777 11.0929ZM8.89777 9.77289C11.9353 9.77289 14.3978 7.31045 14.3978 4.27289H11.3978C11.3978 5.6536 10.2785 6.77289 8.89777 6.77289V9.77289ZM3.39777 4.27289C3.39777 7.31045 5.8602 9.77289 8.89777 9.77289V6.77289C7.51705 6.77289 6.39777 5.6536 6.39777 4.27289H3.39777ZM8.89777 -1.22711C5.8602 -1.22711 3.39777 1.23532 3.39777 4.27289H6.39777C6.39777 2.89218 7.51705 1.77289 8.89777 1.77289V-1.22711ZM14.3978 4.27289C14.3978 1.23532 11.9353 -1.22711 8.89777 -1.22711V1.77289C10.2785 1.77289 11.3978 2.89218 11.3978 4.27289H14.3978ZM9.63588 7.79444C9.42045 7.78464 9.16714 7.77289 8.89777 7.77289V10.7729C9.08839 10.7729 9.27509 10.7811 9.49965 10.7913L9.63588 7.79444ZM10.3978 12.2729C10.3978 11.4418 10.591 10.6553 10.9297 9.92148L8.20583 8.6643C7.70451 9.75049 7.39777 10.964 7.39777 12.2729H10.3978ZM11.3871 15.4134C10.7659 14.5249 10.3978 13.4429 10.3978 12.2729H7.39777C7.39777 14.0829 7.96959 15.7609 8.92841 17.1324L11.3871 15.4134ZM0.897766 17.7729H10.1578V14.7729H0.897766V17.7729ZM-0.602234 13.6229V16.2729H2.39777V13.6229H-0.602234ZM1.52467 9.8015C0.144439 10.6171 -0.602234 12.115 -0.602234 13.6229H2.39777C2.39777 13.0708 2.67109 12.6087 3.05086 12.3843L1.52467 9.8015ZM8.89777 7.77289C6.19719 7.77289 3.67319 8.52128 1.51995 9.8043L3.05558 12.3815C4.76235 11.3645 6.75834 10.7729 8.89777 10.7729V7.77289Z" fill="#171B3D" mask="url(#path-1-inside-1_8_220)"/>
<path d="M19.6477 12.2729C19.6477 12.0529 19.6177 11.8529 19.5877 11.6429L20.7277 10.6329L19.7277 8.90289L18.2777 9.39289C17.9577 9.12289 17.5977 8.91289 17.1977 8.76289L16.8977 7.27289H14.8977L14.5977 8.76289C14.1977 8.91289 13.8377 9.12289 13.5177 9.39289L12.0677 8.90289L11.0677 10.6329L12.2077 11.6429C12.1777 11.8529 12.1477 12.0529 12.1477 12.2729C12.1477 12.4929 12.1777 12.6929 12.2077 12.9029L11.0677 13.9129L12.0677 15.6429L13.5177 15.1529C13.8377 15.4229 14.1977 15.6329 14.5977 15.7829L14.8977 17.2729H16.8977L17.1977 15.7829C17.5977 15.6329 17.9577 15.4229 18.2777 15.1529L19.7277 15.6429L20.7277 13.9129L19.5877 12.9029C19.6177 12.6929 19.6477 12.4929 19.6477 12.2729ZM15.8977 14.2729C14.7977 14.2729 13.8977 13.3729 13.8977 12.2729C13.8977 11.1729 14.7977 10.2729 15.8977 10.2729C16.9977 10.2729 17.8977 11.1729 17.8977 12.2729C17.8977 13.3729 16.9977 14.2729 15.8977 14.2729Z" fill="#171B3D"/>
</svg>
