<svg width="238" height="79" viewBox="0 0 238 79" fill="none" xmlns="http://www.w3.org/2000/svg">
<path fill-rule="evenodd" clip-rule="evenodd" d="M13.1207 65.6619H2.12726V76.6553H13.1207V65.6619ZM0.127258 63.6619V78.6553H15.1207V63.6619H0.127258Z" fill="#171B3D"/>
<path fill-rule="evenodd" clip-rule="evenodd" d="M13.1207 23.4929H2.12726V34.4863H13.1207V23.4929ZM0.127258 21.4929V36.4863H15.1207V21.4929H0.127258Z" fill="#090D33"/>
<path fill-rule="evenodd" clip-rule="evenodd" d="M13.1207 2.40845H2.12726V13.4019H13.1207V2.40845ZM0.127258 0.408447V15.4019H15.1207V0.408447H0.127258Z" fill="#090D33"/>
<path fill-rule="evenodd" clip-rule="evenodd" d="M33.9708 34.035H22.9774V45.0284H33.9708V34.035ZM20.9774 32.035V47.0284H35.9708V32.035H20.9774Z" fill="#C0C4DD"/>
<path fill-rule="evenodd" clip-rule="evenodd" d="M54.8209 44.1085H43.8275V55.1019H54.8209V44.1085ZM41.8275 42.1085V57.1019H56.8209V42.1085H41.8275Z" fill="#6B7097"/>
<path fill-rule="evenodd" clip-rule="evenodd" d="M33.9708 13.4194H22.9774V24.4128H33.9708V13.4194ZM20.9774 11.4194V26.4128H35.9708V11.4194H20.9774Z" fill="#090D33"/>
<path fill-rule="evenodd" clip-rule="evenodd" d="M54.8209 23.4929H43.8275V34.4863H54.8209V23.4929ZM41.8275 21.4929V36.4863H56.8209V21.4929H41.8275Z" fill="#171B3D"/>
<path fill-rule="evenodd" clip-rule="evenodd" d="M75.671 34.035H64.6776V45.0284H75.671V34.035ZM62.6776 32.035V47.0284H77.671V32.035H62.6776Z" fill="#FF542F"/>
<path fill-rule="evenodd" clip-rule="evenodd" d="M33.9708 54.651H22.9774V65.6444H33.9708V54.651ZM20.9774 52.651V67.6444H35.9708V52.651H20.9774Z" fill="#171B3D"/>
<path fill-rule="evenodd" clip-rule="evenodd" d="M13.1207 44.5774H2.12726V55.5708H13.1207V44.5774ZM0.127258 42.5774V57.5708H15.1207V42.5774H0.127258Z" fill="#E0E2EE"/>
<path fill-rule="evenodd" clip-rule="evenodd" d="M11.2875 69.9325L6.71392 74.506L3.96045 71.7525L5.37467 70.3383L6.71392 71.6776L9.87325 68.5182L11.2875 69.9325Z" fill="#171B3D"/>
<path fill-rule="evenodd" clip-rule="evenodd" d="M11.2875 27.4615L6.71392 32.0351L3.96045 29.2816L5.37467 27.8674L6.71392 29.2066L9.87325 26.0473L11.2875 27.4615Z" fill="#171B3D"/>
<path fill-rule="evenodd" clip-rule="evenodd" d="M11.2875 6.37735L6.71392 10.9509L3.96045 8.19741L5.37467 6.7832L6.71392 8.12246L9.87325 4.96313L11.2875 6.37735Z" fill="#171B3D"/>
<path fill-rule="evenodd" clip-rule="evenodd" d="M32.1376 16.9193L27.5641 21.4929L24.8106 18.7394L26.2248 17.3252L27.5641 18.6645L30.7234 15.5051L32.1376 16.9193Z" fill="#171B3D"/>
<path fill-rule="evenodd" clip-rule="evenodd" d="M32.1377 58.9216L27.5641 63.4951L24.8107 60.7417L26.2249 59.3274L27.5641 60.6667L30.7235 57.5074L32.1377 58.9216Z" fill="#171B3D"/>
<path fill-rule="evenodd" clip-rule="evenodd" d="M52.9877 27.7635L48.4142 32.337L45.6607 29.5835L47.0749 28.1693L48.4142 29.5086L51.5735 26.3492L52.9877 27.7635Z" fill="#171B3D"/>
</svg>
