<svg width="238" height="79" viewBox="0 0 238 79" fill="none" xmlns="http://www.w3.org/2000/svg">
<g clip-path="url(#clip0_70_442)">
<path d="M164.09 56.2851H165.168C165.355 56.0985 165.518 55.8698 165.658 55.5991C165.798 55.3285 165.91 54.9831 165.994 54.5631C166.088 54.1431 166.158 53.6298 166.204 53.0231C166.251 52.4071 166.274 51.6605 166.274 50.7831V47.9131H172.588V57.6851H171.006V49.3131H167.8V50.9651C167.8 51.9078 167.768 52.7198 167.702 53.4011C167.646 54.0731 167.562 54.6471 167.45 55.1231C167.338 55.5991 167.198 55.9911 167.03 56.2991C166.872 56.6071 166.694 56.8591 166.498 57.0551C166.256 57.2885 165.994 57.4611 165.714 57.5731C165.434 57.6758 165.094 57.7271 164.692 57.7271H164.09V56.2851Z" fill="#E0E2EE"/>
<path d="M178.792 37.0992H179.87C180.056 36.9125 180.22 36.6838 180.36 36.4132C180.5 36.1425 180.612 35.7972 180.696 35.3772C180.789 34.9572 180.859 34.4438 180.906 33.8372C180.952 33.2212 180.976 32.4745 180.976 31.5972V28.7272H187.29V38.4992H185.708V30.1272H182.502V31.7792C182.502 32.7218 182.469 33.5338 182.404 34.2152C182.348 34.8872 182.264 35.4612 182.152 35.9372C182.04 36.4132 181.9 36.8052 181.732 37.1132C181.573 37.4212 181.396 37.6732 181.2 37.8692C180.957 38.1025 180.696 38.2752 180.416 38.3872C180.136 38.4898 179.795 38.5412 179.394 38.5412H178.792V37.0992Z" fill="#E0E2EE"/>
<path d="M161.864 57.6851L160.982 55.0391H157.328L156.474 57.6851H154.864L158.196 47.9131H160.184L163.516 57.6851H161.864ZM159.19 49.3691H159.12L157.706 53.6811H160.59L159.19 49.3691Z" fill="#E0E2EE"/>
<path d="M148.583 57.6851V47.9131H150.165V56.2851H154.141V57.6851H148.583Z" fill="#171B3D"/>
<path d="M144.656 50.2091H144.586L143.816 51.7911L141.674 55.6971L139.532 51.7911L138.762 50.2091H138.692V57.6851H137.18V47.9131H139.056L141.674 52.8831H141.758L144.376 47.9131H146.168V57.6851H144.656V50.2091Z" fill="#171B3D"/>
<path d="M126.274 56.2851H127.352C127.539 56.0985 127.702 55.8698 127.842 55.5991C127.982 55.3285 128.094 54.9831 128.178 54.5631C128.271 54.1431 128.341 53.6298 128.388 53.0231C128.435 52.4071 128.458 51.6605 128.458 50.7831V47.9131H134.772V57.6851H133.19V49.3131H129.984V50.9651C129.984 51.9078 129.951 52.7198 129.886 53.4011C129.83 54.0731 129.746 54.6471 129.634 55.1231C129.522 55.5991 129.382 55.9911 129.214 56.2991C129.055 56.6071 128.878 56.8591 128.682 57.0551C128.439 57.2885 128.178 57.4611 127.898 57.5731C127.618 57.6758 127.277 57.7271 126.876 57.7271H126.274V56.2851Z" fill="#E0E2EE"/>
<path d="M114.676 47.9131H116.258V51.6651H118.988C119.894 51.6651 120.594 51.9358 121.088 52.4771C121.583 53.0091 121.83 53.7418 121.83 54.6751C121.83 55.6085 121.583 56.3458 121.088 56.8871C120.594 57.4191 119.894 57.6851 118.988 57.6851H114.676V47.9131ZM118.89 56.2991C119.292 56.2991 119.604 56.1918 119.828 55.9771C120.052 55.7625 120.164 55.4405 120.164 55.0111V54.3391C120.164 53.9098 120.052 53.5878 119.828 53.3731C119.604 53.1585 119.292 53.0511 118.89 53.0511H116.258V56.2991H118.89ZM123.286 47.9131H124.868V57.6851H123.286V47.9131Z" fill="#E0E2EE"/>
<path d="M175.002 48.0811H176.584V51.8331H179.314C180.22 51.8331 180.92 52.1038 181.414 52.6451C181.909 53.1771 182.156 53.9098 182.156 54.8431C182.156 55.7764 181.909 56.5138 181.414 57.0551C180.92 57.5871 180.22 57.8531 179.314 57.8531H175.002V48.0811ZM179.216 56.4671C179.618 56.4671 179.93 56.3598 180.154 56.1451C180.378 55.9304 180.49 55.6084 180.49 55.1791V54.5071C180.49 54.0778 180.378 53.7558 180.154 53.5411C179.93 53.3264 179.618 53.2191 179.216 53.2191H176.584V56.4671H179.216ZM183.612 48.0811H185.194V57.8531H183.612V48.0811Z" fill="#E0E2EE"/>
<path d="M111.511 57.6851L110.629 55.0391H106.975L106.121 57.6851H104.511L107.843 47.9131H109.831L113.163 57.6851H111.511ZM108.837 49.3691H108.767L107.353 53.6811H110.237L108.837 49.3691Z" fill="#E0E2EE"/>
<path d="M96.3423 47.9131H100.668C101.48 47.9131 102.115 48.1418 102.572 48.5991C103.039 49.0565 103.272 49.6678 103.272 50.4331C103.272 50.7971 103.221 51.1098 103.118 51.3711C103.016 51.6231 102.885 51.8331 102.726 52.0011C102.568 52.1598 102.386 52.2811 102.18 52.3651C101.975 52.4398 101.774 52.4865 101.578 52.5051V52.5891C101.774 52.5985 101.989 52.6451 102.222 52.7291C102.465 52.8131 102.689 52.9485 102.894 53.1351C103.1 53.3125 103.272 53.5458 103.412 53.8351C103.552 54.1151 103.622 54.4605 103.622 54.8711C103.622 55.2631 103.557 55.6318 103.426 55.9771C103.305 56.3225 103.132 56.6211 102.908 56.8731C102.684 57.1251 102.418 57.3258 102.11 57.4751C101.802 57.6151 101.466 57.6851 101.102 57.6851H96.3423V47.9131ZM97.9243 56.3271H100.64C101.051 56.3271 101.373 56.2198 101.606 56.0051C101.84 55.7905 101.956 55.4825 101.956 55.0811V54.6051C101.956 54.2038 101.84 53.8958 101.606 53.6811C101.373 53.4665 101.051 53.3591 100.64 53.3591H97.9243V56.3271ZM97.9243 52.0431H100.374C100.766 52.0431 101.07 51.9451 101.284 51.7491C101.499 51.5438 101.606 51.2545 101.606 50.8811V50.4331C101.606 50.0598 101.499 49.7751 101.284 49.5791C101.07 49.3738 100.766 49.2711 100.374 49.2711H97.9243V52.0431Z" fill="#E0E2EE"/>
<path d="M91.8882 49.3131V57.6851H90.3062V49.3131H87.3942V47.9131H94.8002V49.3131H91.8882Z" fill="#E0E2EE"/>
<path d="M86.0128 57.6851L85.1308 55.0391H81.4768L80.6228 57.6851H79.0128L82.3448 47.9131H84.3328L87.6648 57.6851H86.0128ZM83.3388 49.3691H83.2688L81.8548 53.6811H84.7388L83.3388 49.3691Z" fill="#E0E2EE"/>
<path d="M71.0357 47.9131H72.6177V51.6651H75.4877C76.393 51.6651 77.093 51.9358 77.5877 52.4771C78.0824 53.0091 78.3297 53.7418 78.3297 54.6751C78.3297 55.6085 78.0824 56.3458 77.5877 56.8871C77.093 57.4191 76.393 57.6851 75.4877 57.6851H71.0357V47.9131ZM75.3897 56.2991C75.791 56.2991 76.1037 56.1918 76.3277 55.9771C76.5517 55.7625 76.6637 55.4405 76.6637 55.0111V54.3391C76.6637 53.9098 76.5517 53.5878 76.3277 53.3731C76.1037 53.1585 75.791 53.0511 75.3897 53.0511H72.6177V56.2991H75.3897Z" fill="#E0E2EE"/>
<path d="M59.3223 56.2851H60.3583C60.545 56.0518 60.713 55.7765 60.8623 55.4591C61.021 55.1325 61.1517 54.7545 61.2543 54.3251C61.3663 53.8865 61.4503 53.3871 61.5063 52.8271C61.5623 52.2578 61.5903 51.6091 61.5903 50.8811V47.9131H67.9603V56.2851H69.4163V59.7851H67.9463V57.6851H60.7923V59.7851H59.3223V56.2851ZM66.3783 56.2851V49.3131H63.1163V51.0631C63.1163 51.7631 63.093 52.3838 63.0463 52.9251C63.009 53.4665 62.9483 53.9471 62.8643 54.3671C62.7897 54.7778 62.6917 55.1371 62.5703 55.4451C62.4583 55.7438 62.3277 56.0051 62.1783 56.2291V56.2851H66.3783Z" fill="#E0E2EE"/>
<path d="M52.7525 57.6851H51.1705V47.9131H55.3845C56.2618 47.9131 56.9525 48.1791 57.4565 48.7111C57.9605 49.2338 58.2125 49.9478 58.2125 50.8531C58.2125 51.5531 58.0491 52.1365 57.7225 52.6031C57.4051 53.0605 56.9338 53.3825 56.3085 53.5691L58.4225 57.6851H56.6585L54.6985 53.7371H52.7525V57.6851ZM55.2725 52.4071C55.6738 52.4071 55.9865 52.3045 56.2105 52.0991C56.4345 51.8845 56.5465 51.5811 56.5465 51.1891V50.5171C56.5465 50.1251 56.4345 49.8265 56.2105 49.6211C55.9865 49.4065 55.6738 49.2991 55.2725 49.2991H52.7525V52.4071H55.2725Z" fill="#171B3D"/>
<path d="M45.9655 57.8531C44.6868 57.8531 43.6835 57.4238 42.9555 56.5651C42.2275 55.6971 41.8635 54.4418 41.8635 52.7991C41.8635 51.9778 41.9568 51.2545 42.1435 50.6291C42.3301 50.0038 42.6008 49.4765 42.9555 49.0471C43.3101 48.6178 43.7395 48.2958 44.2435 48.0811C44.7568 47.8571 45.3308 47.7451 45.9655 47.7451C46.8148 47.7451 47.5241 47.9318 48.0935 48.3051C48.6721 48.6785 49.1248 49.2291 49.4515 49.9571L48.1215 50.6851C47.9535 50.2185 47.6921 49.8498 47.3375 49.5791C46.9921 49.2991 46.5348 49.1591 45.9655 49.1591C45.2095 49.1591 44.6168 49.4158 44.1875 49.9291C43.7581 50.4425 43.5435 51.1518 43.5435 52.0571V53.5411C43.5435 54.4465 43.7581 55.1558 44.1875 55.6691C44.6168 56.1825 45.2095 56.4391 45.9655 56.4391C46.5535 56.4391 47.0295 56.2898 47.3935 55.9911C47.7668 55.6831 48.0421 55.2911 48.2195 54.8151L49.4935 55.5851C49.1668 56.2945 48.7095 56.8498 48.1215 57.2511C47.5335 57.6525 46.8148 57.8531 45.9655 57.8531Z" fill="#171B3D"/>
<path d="M36.1107 57.8531C35.476 57.8531 34.8973 57.7458 34.3747 57.5311C33.8613 57.3071 33.418 56.9851 33.0447 56.5651C32.6807 56.1358 32.396 55.6085 32.1907 54.9831C31.9947 54.3485 31.8967 53.6205 31.8967 52.7991C31.8967 51.9778 31.9947 51.2545 32.1907 50.6291C32.396 49.9945 32.6807 49.4671 33.0447 49.0471C33.418 48.6178 33.8613 48.2958 34.3747 48.0811C34.8973 47.8571 35.476 47.7451 36.1107 47.7451C36.7453 47.7451 37.3193 47.8571 37.8327 48.0811C38.3553 48.2958 38.7987 48.6178 39.1627 49.0471C39.536 49.4671 39.8207 49.9945 40.0167 50.6291C40.222 51.2545 40.3247 51.9778 40.3247 52.7991C40.3247 53.6205 40.222 54.3485 40.0167 54.9831C39.8207 55.6085 39.536 56.1358 39.1627 56.5651C38.7987 56.9851 38.3553 57.3071 37.8327 57.5311C37.3193 57.7458 36.7453 57.8531 36.1107 57.8531ZM36.1107 56.4391C36.484 56.4391 36.8247 56.3738 37.1327 56.2431C37.45 56.1125 37.716 55.9258 37.9307 55.6831C38.1547 55.4311 38.3273 55.1278 38.4487 54.7731C38.57 54.4185 38.6307 54.0171 38.6307 53.5691V52.0291C38.6307 51.5811 38.57 51.1798 38.4487 50.8251C38.3273 50.4705 38.1547 50.1718 37.9307 49.9291C37.716 49.6771 37.45 49.4858 37.1327 49.3551C36.8247 49.2245 36.484 49.1591 36.1107 49.1591C35.728 49.1591 35.3827 49.2245 35.0747 49.3551C34.7667 49.4858 34.5007 49.6771 34.2767 49.9291C34.062 50.1718 33.894 50.4705 33.7727 50.8251C33.6513 51.1798 33.5907 51.5811 33.5907 52.0291V53.5691C33.5907 54.0171 33.6513 54.4185 33.7727 54.7731C33.894 55.1278 34.062 55.4311 34.2767 55.6831C34.5007 55.9258 34.7667 56.1125 35.0747 56.2431C35.3827 56.3738 35.728 56.4391 36.1107 56.4391Z" fill="#171B3D"/>
<path d="M17.8377 56.2851H18.7057L20.0357 53.6531C20.185 53.3545 20.339 53.1351 20.4977 52.9951C20.6564 52.8551 20.843 52.7618 21.0577 52.7151V52.6451C20.8617 52.5798 20.6844 52.4818 20.5257 52.3511C20.367 52.2111 20.2224 52.0058 20.0917 51.7351L18.9577 49.3131H18.0897V47.9131H18.8597C19.2144 47.9131 19.513 47.9925 19.7557 48.1511C20.0077 48.3098 20.227 48.5851 20.4137 48.9771L21.8557 52.0291H23.3957V47.9131H24.9777V52.0291H26.5177L27.9597 48.9771C28.1464 48.5851 28.361 48.3098 28.6037 48.1511C28.8557 47.9925 29.159 47.9131 29.5137 47.9131H30.2837V49.3131H29.4157L28.2817 51.7351C28.151 52.0058 28.0064 52.2111 27.8477 52.3511C27.689 52.4818 27.5117 52.5798 27.3157 52.6451V52.7151C27.5304 52.7618 27.717 52.8551 27.8757 52.9951C28.0344 53.1351 28.1884 53.3545 28.3377 53.6531L29.6677 56.2851H30.5357V57.6851H29.5557C29.229 57.6851 28.9584 57.6105 28.7437 57.4611C28.5384 57.3025 28.3284 57.0131 28.1137 56.5931L26.5177 53.4151H24.9777V57.6851H23.3957V53.4151H21.8557L20.2597 56.5931C20.045 57.0131 19.8304 57.3025 19.6157 57.4611C19.4104 57.6105 19.1444 57.6851 18.8177 57.6851H17.8377V56.2851Z" fill="#E0E2EE"/>
<path d="M9.30719 47.9131H13.6332C14.4452 47.9131 15.0799 48.1418 15.5372 48.5991C16.0039 49.0565 16.2372 49.6678 16.2372 50.4331C16.2372 50.7971 16.1859 51.1098 16.0832 51.3711C15.9805 51.6231 15.8499 51.8331 15.6912 52.0011C15.5325 52.1598 15.3505 52.2811 15.1452 52.3651C14.9399 52.4398 14.7392 52.4865 14.5432 52.5051V52.5891C14.7392 52.5985 14.9539 52.6451 15.1872 52.7291C15.4299 52.8131 15.6539 52.9485 15.8592 53.1351C16.0645 53.3125 16.2372 53.5458 16.3772 53.8351C16.5172 54.1151 16.5872 54.4605 16.5872 54.8711C16.5872 55.2631 16.5219 55.6318 16.3912 55.9771C16.2699 56.3225 16.0972 56.6211 15.8732 56.8731C15.6492 57.1251 15.3832 57.3258 15.0752 57.4751C14.7672 57.6151 14.4312 57.6851 14.0672 57.6851H9.30719V47.9131ZM10.8892 56.3271H13.6052C14.0159 56.3271 14.3379 56.2198 14.5712 56.0051C14.8045 55.7905 14.9212 55.4825 14.9212 55.0811V54.6051C14.9212 54.2038 14.8045 53.8958 14.5712 53.6811C14.3379 53.4665 14.0159 53.3591 13.6052 53.3591H10.8892V56.3271ZM10.8892 52.0431H13.3392C13.7312 52.0431 14.0345 51.9451 14.2492 51.7491C14.4639 51.5438 14.5712 51.2545 14.5712 50.8811V50.4331C14.5712 50.0598 14.4639 49.7751 14.2492 49.5791C14.0345 49.3738 13.7312 49.2711 13.3392 49.2711H10.8892V52.0431Z" fill="#E0E2EE"/>
<path d="M0.283752 47.9131H6.52775V49.3131H1.86575V51.7491H4.59575C5.50109 51.7491 6.20109 52.0198 6.69575 52.5611C7.19042 53.0931 7.43775 53.8118 7.43775 54.7171C7.43775 55.6225 7.19042 56.3458 6.69575 56.8871C6.20109 57.4191 5.50109 57.6851 4.59575 57.6851H0.283752V47.9131ZM4.49775 56.2991C4.89909 56.2991 5.21175 56.1918 5.43575 55.9771C5.65975 55.7625 5.77175 55.4405 5.77175 55.0111V54.4231C5.77175 53.9938 5.65975 53.6718 5.43575 53.4571C5.21175 53.2425 4.89909 53.1351 4.49775 53.1351H1.86575V56.2991H4.49775Z" fill="#E0E2EE"/>
<path d="M171.204 67.1279H172.744V72.6859L172.59 74.7019H172.632L173.612 72.8959L177.364 67.1279H178.792V76.8999H177.252V71.3419L177.406 69.3259H177.364L176.384 71.1319L172.632 76.8999H171.204V67.1279ZM174.984 66.3299C174.424 66.3299 173.976 66.2179 173.64 65.9939C173.313 65.7606 173.052 65.4433 172.856 65.0419L172.576 64.4259L173.822 63.9219L174.298 65.1819C174.391 65.2099 174.498 65.2333 174.62 65.2519C174.75 65.2706 174.872 65.2799 174.984 65.2799C175.096 65.2799 175.212 65.2706 175.334 65.2519C175.464 65.2333 175.576 65.2099 175.67 65.1819L176.146 63.9219L177.392 64.4259L177.112 65.0419C176.916 65.4433 176.65 65.7606 176.314 65.9939C175.987 66.2179 175.544 66.3299 174.984 66.3299Z" fill="#E0E2EE"/>
<path d="M165.581 77.068C164.815 77.068 164.143 76.928 163.565 76.648C162.995 76.368 162.505 75.9713 162.095 75.458L163.173 74.464C163.471 74.8466 163.812 75.1406 164.195 75.346C164.587 75.5513 165.049 75.654 165.581 75.654C166.225 75.654 166.719 75.5326 167.065 75.29C167.41 75.0473 167.583 74.6786 167.583 74.184V74.03C167.583 73.582 167.438 73.2366 167.149 72.994C166.859 72.7513 166.407 72.63 165.791 72.63H164.223V71.23H165.707C166.285 71.23 166.71 71.1133 166.981 70.88C167.251 70.6373 167.387 70.278 167.387 69.802V69.662C167.387 69.242 167.242 68.9246 166.953 68.71C166.673 68.486 166.243 68.374 165.665 68.374C165.161 68.374 164.722 68.4673 164.349 68.654C163.985 68.8313 163.686 69.074 163.453 69.382L162.375 68.472C162.757 67.996 163.215 67.6273 163.747 67.366C164.279 67.0953 164.918 66.96 165.665 66.96C166.766 66.96 167.606 67.198 168.185 67.674C168.773 68.15 169.067 68.7893 169.067 69.592C169.067 70.264 168.885 70.7773 168.521 71.132C168.166 71.4866 167.704 71.7106 167.135 71.804V71.874C167.415 71.902 167.681 71.9673 167.933 72.07C168.194 72.1726 168.423 72.3173 168.619 72.504C168.815 72.6813 168.969 72.9053 169.081 73.176C169.202 73.4373 169.263 73.75 169.263 74.114C169.263 74.5526 169.179 74.954 169.011 75.318C168.843 75.682 168.6 75.9946 168.283 76.256C167.965 76.5173 167.578 76.718 167.121 76.858C166.663 76.998 166.15 77.068 165.581 77.068Z" fill="#E0E2EE"/>
<path d="M149.001 67.128H150.583V75.5H153.915V67.128H155.497V75.5H158.829V67.128H160.411V76.9H149.001V67.128Z" fill="#E0E2EE"/>
<path d="M145.835 76.9L144.953 74.254H141.299L140.445 76.9H138.835L142.167 67.128H144.155L147.487 76.9H145.835ZM143.161 68.584H143.091L141.677 72.896H144.561L143.161 68.584Z" fill="#E0E2EE"/>
<path d="M186.672 76.9L185.79 74.254H182.136L181.282 76.9H179.672L183.004 67.128H184.992L188.324 76.9H186.672ZM183.998 68.584H183.928L182.514 72.896H185.398L183.998 68.584Z" fill="#E0E2EE"/>
<path d="M129.737 67.1279H131.277V72.6859L131.123 74.7019H131.165L132.145 72.8959L135.897 67.1279H137.325V76.8999H135.785V71.3419L135.939 69.3259H135.897L134.917 71.1319L131.165 76.8999H129.737V67.1279ZM133.517 66.3299C132.957 66.3299 132.509 66.2179 132.173 65.9939C131.846 65.7606 131.585 65.4433 131.389 65.0419L131.109 64.4259L132.355 63.9219L132.831 65.1819C132.924 65.2099 133.032 65.2333 133.153 65.2519C133.284 65.2706 133.405 65.2799 133.517 65.2799C133.629 65.2799 133.746 65.2706 133.867 65.2519C133.998 65.2333 134.11 65.2099 134.203 65.1819L134.679 63.9219L135.925 64.4259L135.645 65.0419C135.449 65.4433 135.183 65.7606 134.847 65.9939C134.52 66.2179 134.077 66.3299 133.517 66.3299Z" fill="#E0E2EE"/>
<path d="M130.523 28.8952H132.063V34.4532L131.909 36.4692H131.951L132.931 34.6632L136.683 28.8952H138.111V38.6672H136.571V33.1092L136.725 31.0932H136.683L135.703 32.8992L131.951 38.6672H130.523V28.8952ZM134.303 28.0972C133.743 28.0972 133.295 27.9852 132.959 27.7612C132.632 27.5279 132.371 27.2105 132.175 26.8092L131.895 26.1932L133.141 25.6892L133.617 26.9492C133.71 26.9772 133.817 27.0005 133.939 27.0192C134.069 27.0379 134.191 27.0472 134.303 27.0472C134.415 27.0472 134.531 27.0379 134.653 27.0192C134.783 27.0005 134.895 26.9772 134.989 26.9492L135.465 25.6892L136.711 26.1932L136.431 26.8092C136.235 27.2105 135.969 27.5279 135.633 27.7612C135.306 27.9852 134.863 28.0972 134.303 28.0972Z" fill="#E0E2EE"/>
<path d="M126.642 76.9H119.278V67.128H120.86V75.5H125.074V67.128H126.656V75.5H128.112V79H126.642V76.9Z" fill="#E0E2EE"/>
<path d="M113.034 76.9V75.612H114.364V68.416H113.034V67.128H117.29V68.416H115.946V75.612H117.29V76.9H113.034Z" fill="#171B3D"/>
<path d="M110.288 76.9L109.406 74.254H105.752L104.898 76.9H103.288L106.62 67.128H108.608L111.94 76.9H110.288ZM107.614 68.584H107.544L106.13 72.896H109.014L107.614 68.584Z" fill="#171B3D"/>
<path d="M94.19 67.128H95.73V72.686L95.576 74.702H95.618L96.598 72.896L100.35 67.128H101.778V76.9H100.238V71.342L100.392 69.326H100.35L99.37 71.132L95.618 76.9H94.19V67.128Z" fill="#E0E2EE"/>
<path d="M91.0245 76.9L90.1425 74.254H86.4885L85.6345 76.9H84.0245L87.3565 67.128H89.3445L92.6765 76.9H91.0245ZM88.3505 68.584H88.2805L86.8665 72.896H89.7505L88.3505 68.584Z" fill="#E0E2EE"/>
<path d="M79.0345 77.068C78.3998 77.068 77.8212 76.9606 77.2985 76.746C76.7852 76.522 76.3418 76.2 75.9685 75.78C75.6045 75.3506 75.3198 74.8233 75.1145 74.198C74.9185 73.5633 74.8205 72.8353 74.8205 72.014C74.8205 71.1926 74.9185 70.4693 75.1145 69.844C75.3198 69.2093 75.6045 68.682 75.9685 68.262C76.3418 67.8326 76.7852 67.5106 77.2985 67.296C77.8212 67.072 78.3998 66.96 79.0345 66.96C79.6692 66.96 80.2432 67.072 80.7565 67.296C81.2792 67.5106 81.7225 67.8326 82.0865 68.262C82.4598 68.682 82.7445 69.2093 82.9405 69.844C83.1458 70.4693 83.2485 71.1926 83.2485 72.014C83.2485 72.8353 83.1458 73.5633 82.9405 74.198C82.7445 74.8233 82.4598 75.3506 82.0865 75.78C81.7225 76.2 81.2792 76.522 80.7565 76.746C80.2432 76.9606 79.6692 77.068 79.0345 77.068ZM79.0345 75.654C79.4078 75.654 79.7485 75.5886 80.0565 75.458C80.3738 75.3273 80.6398 75.1406 80.8545 74.898C81.0785 74.646 81.2512 74.3426 81.3725 73.988C81.4938 73.6333 81.5545 73.232 81.5545 72.784V71.244C81.5545 70.796 81.4938 70.3946 81.3725 70.04C81.2512 69.6853 81.0785 69.3866 80.8545 69.144C80.6398 68.892 80.3738 68.7006 80.0565 68.57C79.7485 68.4393 79.4078 68.374 79.0345 68.374C78.6518 68.374 78.3065 68.4393 77.9985 68.57C77.6905 68.7006 77.4245 68.892 77.2005 69.144C76.9858 69.3866 76.8178 69.6853 76.6965 70.04C76.5752 70.3946 76.5145 70.796 76.5145 71.244V72.784C76.5145 73.232 76.5752 73.6333 76.6965 73.988C76.8178 74.3426 76.9858 74.646 77.2005 74.898C77.4245 75.1406 77.6905 75.3273 77.9985 75.458C78.3065 75.5886 78.6518 75.654 79.0345 75.654Z" fill="#E0E2EE"/>
<path d="M63.8692 75.5H64.9052C65.0919 75.2667 65.2599 74.9913 65.4092 74.674C65.5679 74.3473 65.6985 73.9693 65.8012 73.54C65.9132 73.1013 65.9972 72.602 66.0532 72.042C66.1092 71.4727 66.1372 70.824 66.1372 70.096V67.128H72.5072V75.5H73.9632V79H72.4932V76.9H65.3392V79H63.8692V75.5ZM70.9252 75.5V68.528H67.6632V70.278C67.6632 70.978 67.6399 71.5987 67.5932 72.14C67.5559 72.6813 67.4952 73.162 67.4112 73.582C67.3365 73.9927 67.2385 74.352 67.1172 74.66C67.0052 74.9587 66.8745 75.22 66.7252 75.444V75.5H70.9252Z" fill="#E0E2EE"/>
<path d="M57.0573 76.13H56.5673C55.9233 76.13 55.34 76.0273 54.8173 75.822C54.304 75.6073 53.8653 75.318 53.5013 74.954C53.1466 74.59 52.8713 74.1606 52.6753 73.666C52.4793 73.162 52.3813 72.616 52.3813 72.028C52.3813 71.4493 52.4746 70.9126 52.6613 70.418C52.8573 69.914 53.1373 69.48 53.5013 69.116C53.8653 68.7426 54.304 68.4533 54.8173 68.248C55.34 68.0333 55.9233 67.926 56.5673 67.926H57.0573V66.666H58.6533V67.926H59.1433C59.7873 67.926 60.366 68.0333 60.8793 68.248C61.402 68.4533 61.8453 68.7426 62.2093 69.116C62.5733 69.48 62.8486 69.914 63.0353 70.418C63.2313 70.9126 63.3293 71.4493 63.3293 72.028C63.3293 72.616 63.2313 73.162 63.0353 73.666C62.8393 74.1606 62.5593 74.59 62.1953 74.954C61.8406 75.318 61.402 75.6073 60.8793 75.822C60.366 76.0273 59.7873 76.13 59.1433 76.13H58.6533V77.39H57.0573V76.13ZM57.0853 74.828V69.228H56.5673C56.166 69.228 55.8066 69.2886 55.4893 69.41C55.1813 69.5313 54.9153 69.6993 54.6913 69.914C54.4766 70.1193 54.3133 70.3666 54.2013 70.656C54.0893 70.9453 54.0333 71.258 54.0333 71.594V72.462C54.0333 72.798 54.0893 73.1106 54.2013 73.4C54.3226 73.6893 54.4906 73.9413 54.7053 74.156C54.92 74.3613 55.186 74.5246 55.5033 74.646C55.8206 74.7673 56.1753 74.828 56.5673 74.828H57.0853ZM59.1433 74.828C59.5353 74.828 59.89 74.7673 60.2073 74.646C60.5246 74.5246 60.7906 74.3613 61.0053 74.156C61.22 73.9413 61.3833 73.6893 61.4953 73.4C61.6166 73.1106 61.6773 72.798 61.6773 72.462V71.594C61.6773 71.258 61.6166 70.9453 61.4953 70.656C61.3833 70.3666 61.22 70.1193 61.0053 69.914C60.7906 69.6993 60.5246 69.5313 60.2073 69.41C59.8993 69.2886 59.5446 69.228 59.1433 69.228H58.6253V74.828H59.1433Z" fill="#E0E2EE"/>
<path d="M40.3638 67.128H41.9458V70.88H44.6758C45.5812 70.88 46.2812 71.1507 46.7758 71.692C47.2705 72.224 47.5178 72.9567 47.5178 73.89C47.5178 74.8233 47.2705 75.5607 46.7758 76.102C46.2812 76.634 45.5812 76.9 44.6758 76.9H40.3638V67.128ZM44.5778 75.514C44.9792 75.514 45.2918 75.4067 45.5158 75.192C45.7398 74.9773 45.8518 74.6553 45.8518 74.226V73.554C45.8518 73.1247 45.7398 72.8027 45.5158 72.588C45.2918 72.3733 44.9792 72.266 44.5778 72.266H41.9458V75.514H44.5778ZM48.9738 67.128H50.5558V76.9H48.9738V67.128Z" fill="#E0E2EE"/>
<path d="M31.1353 67.128H35.4613C36.2733 67.128 36.908 67.3567 37.3653 67.814C37.832 68.2713 38.0653 68.8827 38.0653 69.648C38.0653 70.012 38.014 70.3247 37.9113 70.586C37.8086 70.838 37.678 71.048 37.5193 71.216C37.3606 71.3747 37.1786 71.496 36.9733 71.58C36.768 71.6547 36.5673 71.7013 36.3713 71.72V71.804C36.5673 71.8133 36.782 71.86 37.0153 71.944C37.258 72.028 37.482 72.1633 37.6873 72.35C37.8926 72.5273 38.0653 72.7607 38.2053 73.05C38.3453 73.33 38.4153 73.6753 38.4153 74.086C38.4153 74.478 38.35 74.8467 38.2193 75.192C38.098 75.5373 37.9253 75.836 37.7013 76.088C37.4773 76.34 37.2113 76.5407 36.9033 76.69C36.5953 76.83 36.2593 76.9 35.8953 76.9H31.1353V67.128ZM32.7173 75.542H35.4333C35.844 75.542 36.166 75.4347 36.3993 75.22C36.6326 75.0053 36.7493 74.6973 36.7493 74.296V73.82C36.7493 73.4187 36.6326 73.1107 36.3993 72.896C36.166 72.6813 35.844 72.574 35.4333 72.574H32.7173V75.542ZM32.7173 71.258H35.1673C35.5593 71.258 35.8626 71.16 36.0773 70.964C36.292 70.7587 36.3993 70.4693 36.3993 70.096V69.648C36.3993 69.2747 36.292 68.99 36.0773 68.794C35.8626 68.5887 35.5593 68.486 35.1673 68.486H32.7173V71.258Z" fill="#E0E2EE"/>
<path d="M28.0395 76.9H16.6295V67.128H18.2115V75.5H21.5435V67.128H23.1255V75.5H26.4575V67.128H28.0395V75.5H29.5095V79H28.0395V76.9Z" fill="#E0E2EE"/>
<path d="M9.5611 67.128H15.0631V68.528H11.1431V76.9H9.5611V67.128Z" fill="#E0E2EE"/>
<path d="M0.783752 76.9V67.128H4.98375C5.88909 67.128 6.58909 67.394 7.08375 67.926C7.57842 68.458 7.82575 69.172 7.82575 70.068C7.82575 70.964 7.57842 71.678 7.08375 72.21C6.58909 72.742 5.88909 73.008 4.98375 73.008H2.36575V76.9H0.783752ZM2.36575 71.622H4.88575C5.28709 71.622 5.59975 71.5193 5.82375 71.314C6.04775 71.0993 6.15975 70.796 6.15975 70.404V69.732C6.15975 69.34 6.04775 69.0413 5.82375 68.836C5.59975 68.6213 5.28709 68.514 4.88575 68.514H2.36575V71.622Z" fill="#E0E2EE"/>
<path d="M173.688 38.8352C173.054 38.8352 172.475 38.7278 171.952 38.5132C171.439 38.2892 170.996 37.9672 170.622 37.5472C170.258 37.1178 169.974 36.5905 169.768 35.9652C169.572 35.3305 169.474 34.6025 169.474 33.7812C169.474 32.9598 169.572 32.2365 169.768 31.6112C169.974 30.9765 170.258 30.4492 170.622 30.0292C170.996 29.5998 171.439 29.2778 171.952 29.0632C172.475 28.8392 173.054 28.7272 173.688 28.7272C174.323 28.7272 174.897 28.8392 175.41 29.0632C175.933 29.2778 176.376 29.5998 176.74 30.0292C177.114 30.4492 177.398 30.9765 177.594 31.6112C177.8 32.2365 177.902 32.9598 177.902 33.7812C177.902 34.6025 177.8 35.3305 177.594 35.9652C177.398 36.5905 177.114 37.1178 176.74 37.5472C176.376 37.9672 175.933 38.2892 175.41 38.5132C174.897 38.7278 174.323 38.8352 173.688 38.8352ZM173.688 37.4212C174.062 37.4212 174.402 37.3558 174.71 37.2252C175.028 37.0945 175.294 36.9078 175.508 36.6652C175.732 36.4132 175.905 36.1098 176.026 35.7552C176.148 35.4005 176.208 34.9992 176.208 34.5512V33.0112C176.208 32.5632 176.148 32.1618 176.026 31.8072C175.905 31.4525 175.732 31.1538 175.508 30.9112C175.294 30.6592 175.028 30.4678 174.71 30.3372C174.402 30.2065 174.062 30.1412 173.688 30.1412C173.306 30.1412 172.96 30.2065 172.652 30.3372C172.344 30.4678 172.078 30.6592 171.854 30.9112C171.64 31.1538 171.472 31.4525 171.35 31.8072C171.229 32.1618 171.168 32.5632 171.168 33.0112V34.5512C171.168 34.9992 171.229 35.4005 171.35 35.7552C171.472 36.1098 171.64 36.4132 171.854 36.6652C172.078 36.9078 172.344 37.0945 172.652 37.2252C172.96 37.3558 173.306 37.4212 173.688 37.4212Z" fill="#E0E2EE"/>
<path d="M158.523 37.2672H159.559C159.746 37.0339 159.914 36.7585 160.063 36.4412C160.222 36.1145 160.353 35.7365 160.455 35.3072C160.567 34.8685 160.651 34.3692 160.707 33.8092C160.763 33.2399 160.791 32.5912 160.791 31.8632V28.8952H167.161V37.2672H168.617V40.7672H167.147V38.6672H159.993V40.7672H158.523V37.2672ZM165.579 37.2672V30.2952H162.317V32.0452C162.317 32.7452 162.294 33.3659 162.247 33.9072C162.21 34.4485 162.149 34.9292 162.065 35.3492C161.991 35.7599 161.893 36.1192 161.771 36.4272C161.659 36.7259 161.529 36.9872 161.379 37.2112V37.2672H165.579Z" fill="#E0E2EE"/>
<path d="M149.551 28.8952H151.091V34.4532L150.937 36.4692H150.979L151.959 34.6632L155.711 28.8952H157.139V38.6672H155.599V33.1092L155.753 31.0932H155.711L154.731 32.8992L150.979 38.6672H149.551V28.8952Z" fill="#E0E2EE"/>
<path d="M146.385 38.6672L145.503 36.0212H141.85L140.995 38.6672H139.385L142.717 28.8952H144.706L148.038 38.6672H146.385ZM143.712 30.3512H143.641L142.227 34.6632H145.111L143.712 30.3512Z" fill="#E0E2EE"/>
<path d="M109.751 38.4702H107.889L105.523 34.5782H105.481L103.143 38.4702H101.393L104.557 33.4722L101.505 28.6982H103.367L105.593 32.3382H105.621L107.875 28.6982H109.625L106.545 33.4582L109.751 38.4702Z" fill="#FF542F"/>
<path d="M94.0038 38.4702V28.6982H100.262V30.0982H95.5858V32.8142H99.8278V34.2142H95.5858V37.0702H100.262V38.4702H94.0038Z" fill="#FF542F"/>
<path d="M89.5497 30.0982V38.4702H87.9677V30.0982H85.0557V28.6982H92.4617V30.0982H89.5497Z" fill="#FF542F"/>
<path d="M75.9296 28.6982H77.4696V34.2562L77.3156 36.2722H77.3576L78.3376 34.4662L82.0896 28.6982H83.5176V38.4702H81.9776V32.9122L82.1316 30.8962H82.0896L81.1096 32.7022L77.3576 38.4702H75.9296V28.6982Z" fill="#FF542F"/>
<path d="M71.9414 34.2142H67.5174V38.4702H65.9354V28.6982H67.5174V32.8142H71.9414V28.6982H73.5234V38.4702H71.9414V34.2142Z" fill="#FF542F"/>
<path d="M58.867 28.6982H64.369V30.0982H60.449V38.4702H58.867V28.6982Z" fill="#FF542F"/>
<path d="M52.6803 38.6382C52.0456 38.6382 51.4669 38.5308 50.9443 38.3162C50.4309 38.0922 49.9876 37.7702 49.6143 37.3502C49.2503 36.9208 48.9656 36.3935 48.7603 35.7682C48.5643 35.1335 48.4662 34.4055 48.4662 33.5842C48.4662 32.7628 48.5643 32.0395 48.7603 31.4142C48.9656 30.7795 49.2503 30.2522 49.6143 29.8322C49.9876 29.4028 50.4309 29.0808 50.9443 28.8662C51.4669 28.6422 52.0456 28.5302 52.6803 28.5302C53.3149 28.5302 53.8889 28.6422 54.4023 28.8662C54.9249 29.0808 55.3683 29.4028 55.7323 29.8322C56.1056 30.2522 56.3903 30.7795 56.5863 31.4142C56.7916 32.0395 56.8942 32.7628 56.8942 33.5842C56.8942 34.4055 56.7916 35.1335 56.5863 35.7682C56.3903 36.3935 56.1056 36.9208 55.7323 37.3502C55.3683 37.7702 54.9249 38.0922 54.4023 38.3162C53.8889 38.5308 53.3149 38.6382 52.6803 38.6382ZM52.6803 37.2242C53.0536 37.2242 53.3942 37.1588 53.7022 37.0282C54.0196 36.8975 54.2856 36.7108 54.5003 36.4682C54.7243 36.2162 54.8969 35.9128 55.0182 35.5582C55.1396 35.2035 55.2002 34.8022 55.2002 34.3542V32.8142C55.2002 32.3662 55.1396 31.9648 55.0182 31.6102C54.8969 31.2555 54.7243 30.9568 54.5003 30.7142C54.2856 30.4622 54.0196 30.2708 53.7022 30.1402C53.3942 30.0095 53.0536 29.9442 52.6803 29.9442C52.2976 29.9442 51.9522 30.0095 51.6442 30.1402C51.3362 30.2708 51.0703 30.4622 50.8463 30.7142C50.6316 30.9568 50.4636 31.2555 50.3423 31.6102C50.2209 31.9648 50.1602 32.3662 50.1602 32.8142V34.3542C50.1602 34.8022 50.2209 35.2035 50.3423 35.5582C50.4636 35.9128 50.6316 36.2162 50.8463 36.4682C51.0703 36.7108 51.3362 36.8975 51.6442 37.0282C51.9522 37.1588 52.2976 37.2242 52.6803 37.2242Z" fill="#FF542F"/>
<path d="M39.8904 28.6982H41.4724V32.8142H43.1664L44.9024 29.7622C45.1171 29.3795 45.3411 29.1088 45.5744 28.9502C45.8171 28.7822 46.1111 28.6982 46.4564 28.6982H47.1984V30.0982H46.3164L44.9164 32.5622C44.7578 32.8328 44.6084 33.0288 44.4684 33.1502C44.3378 33.2715 44.1744 33.3648 43.9784 33.4302V33.5002C44.2024 33.5468 44.3938 33.6262 44.5524 33.7382C44.7111 33.8502 44.8744 34.0555 45.0424 34.3542L46.5964 37.0702H47.4504V38.4702H46.4844C46.1764 38.4702 45.9104 38.3955 45.6864 38.2462C45.4624 38.0875 45.2384 37.8122 45.0144 37.4202L43.1664 34.2002H41.4724V38.4702H39.8904V28.6982Z" fill="#FF542F"/>
<path d="M30.9611 37.7001H30.4711C29.8271 37.7001 29.2438 37.5975 28.7211 37.3921C28.2078 37.1775 27.7691 36.8881 27.4051 36.5241C27.0504 36.1601 26.7751 35.7308 26.5791 35.2361C26.3831 34.7321 26.2851 34.1861 26.2851 33.5981C26.2851 33.0195 26.3784 32.4828 26.5651 31.9881C26.7611 31.4841 27.0411 31.0501 27.4051 30.6861C27.7691 30.3128 28.2078 30.0235 28.7211 29.8181C29.2438 29.6035 29.8271 29.4961 30.4711 29.4961H30.9611V28.2361H32.5571V29.4961H33.0471C33.6911 29.4961 34.2698 29.6035 34.7831 29.8181C35.3058 30.0235 35.7491 30.3128 36.1131 30.6861C36.4771 31.0501 36.7524 31.4841 36.9391 31.9881C37.1351 32.4828 37.2331 33.0195 37.2331 33.5981C37.2331 34.1861 37.1351 34.7321 36.9391 35.2361C36.7431 35.7308 36.4631 36.1601 36.0991 36.5241C35.7444 36.8881 35.3058 37.1775 34.7831 37.3921C34.2698 37.5975 33.6911 37.7001 33.0471 37.7001H32.5571V38.9601H30.9611V37.7001ZM30.9891 36.3981V30.7981H30.4711C30.0698 30.7981 29.7104 30.8588 29.3931 30.9801C29.0851 31.1015 28.8191 31.2695 28.5951 31.4841C28.3804 31.6895 28.2171 31.9368 28.1051 32.2261C27.9931 32.5155 27.9371 32.8281 27.9371 33.1641V34.0321C27.9371 34.3681 27.9931 34.6808 28.1051 34.9701C28.2264 35.2595 28.3944 35.5115 28.6091 35.7261C28.8238 35.9315 29.0898 36.0948 29.4071 36.2161C29.7244 36.3375 30.0791 36.3981 30.4711 36.3981H30.9891ZM33.0471 36.3981C33.4391 36.3981 33.7938 36.3375 34.1111 36.2161C34.4284 36.0948 34.6944 35.9315 34.9091 35.7261C35.1238 35.5115 35.2871 35.2595 35.3991 34.9701C35.5204 34.6808 35.5811 34.3681 35.5811 34.0321V33.1641C35.5811 32.8281 35.5204 32.5155 35.3991 32.2261C35.2871 31.9368 35.1238 31.6895 34.9091 31.4841C34.6944 31.2695 34.4284 31.1015 34.1111 30.9801C33.8031 30.8588 33.4484 30.7981 33.0471 30.7981H32.5291V36.3981H33.0471Z" fill="#E0E2EE"/>
<path d="M14.2676 28.6982H15.8496V32.4502H18.5796C19.485 32.4502 20.185 32.7208 20.6796 33.2622C21.1743 33.7942 21.4216 34.5268 21.4216 35.4602C21.4216 36.3935 21.1743 37.1308 20.6796 37.6722C20.185 38.2042 19.485 38.4702 18.5796 38.4702H14.2676V28.6982ZM18.4816 37.0842C18.883 37.0842 19.1956 36.9768 19.4196 36.7622C19.6436 36.5475 19.7556 36.2255 19.7556 35.7962V35.1242C19.7556 34.6948 19.6436 34.3728 19.4196 34.1582C19.1956 33.9435 18.883 33.8362 18.4816 33.8362H15.8496V37.0842H18.4816ZM22.8776 28.6982H24.4596V38.4702H22.8776V28.6982Z" fill="#E0E2EE"/>
<path d="M11.1718 38.4702H-0.23822V28.6982H1.34378V37.0702H4.67578V28.6982H6.25778V37.0702H9.58978V28.6982H11.1718V37.0702H12.6418V40.5702H11.1718V38.4702Z" fill="#E0E2EE"/>
<path d="M185.412 10.8832V19.2552H183.83V10.8832H180.918V9.48322H188.324V10.8832H185.412Z" fill="#E0E2EE"/>
<path d="M171.792 9.48322H173.332V15.0412L173.178 17.0572H173.22L174.2 15.2512L177.952 9.48322H179.38V19.2552H177.84V13.6972L177.994 11.6812H177.952L176.972 13.4872L173.22 19.2552H171.792V9.48322Z" fill="#E0E2EE"/>
<path d="M160.885 17.8552H161.963C162.15 17.6685 162.313 17.4399 162.453 17.1692C162.593 16.8985 162.705 16.5532 162.789 16.1332C162.883 15.7132 162.953 15.1999 162.999 14.5932C163.046 13.9772 163.069 13.2305 163.069 12.3532V9.48322H169.383V19.2552H167.801V10.8832H164.595V12.5352C164.595 13.4779 164.563 14.2899 164.497 14.9712C164.441 15.6432 164.357 16.2172 164.245 16.6932C164.133 17.1692 163.993 17.5612 163.825 17.8692C163.667 18.1772 163.489 18.4292 163.293 18.6252C163.051 18.8585 162.789 19.0312 162.509 19.1432C162.229 19.2459 161.889 19.2972 161.487 19.2972H160.885V17.8552Z" fill="#E0E2EE"/>
<path d="M151.899 9.48322H153.439V15.0412L153.285 17.0572H153.327L154.307 15.2512L158.059 9.48322H159.487V19.2552H157.947V13.6972L158.101 11.6812H158.059L157.079 13.4872L153.327 19.2552H151.899V9.48322Z" fill="#E0E2EE"/>
<path d="M148.733 19.2552L147.851 16.6092H144.197L143.343 19.2552H141.733L145.065 9.48322H147.053L150.385 19.2552H148.733ZM146.059 10.9392H145.989L144.575 15.2512H147.459L146.059 10.9392Z" fill="#E0E2EE"/>
<path d="M134.864 18.4852H134.374C133.73 18.4852 133.147 18.3825 132.624 18.1772C132.111 17.9625 131.672 17.6732 131.308 17.3092C130.953 16.9452 130.678 16.5158 130.482 16.0212C130.286 15.5172 130.188 14.9712 130.188 14.3832C130.188 13.8045 130.281 13.2678 130.468 12.7732C130.664 12.2692 130.944 11.8352 131.308 11.4712C131.672 11.0978 132.111 10.8085 132.624 10.6032C133.147 10.3885 133.73 10.2812 134.374 10.2812H134.864V9.02118H136.46V10.2812H136.95C137.594 10.2812 138.173 10.3885 138.686 10.6032C139.209 10.8085 139.652 11.0978 140.016 11.4712C140.38 11.8352 140.655 12.2692 140.842 12.7732C141.038 13.2678 141.136 13.8045 141.136 14.3832C141.136 14.9712 141.038 15.5172 140.842 16.0212C140.646 16.5158 140.366 16.9452 140.002 17.3092C139.647 17.6732 139.209 17.9625 138.686 18.1772C138.173 18.3825 137.594 18.4852 136.95 18.4852H136.46V19.7452H134.864V18.4852ZM134.892 17.1832V11.5832H134.374C133.973 11.5832 133.613 11.6438 133.296 11.7652C132.988 11.8865 132.722 12.0545 132.498 12.2692C132.283 12.4745 132.12 12.7218 132.008 13.0112C131.896 13.3005 131.84 13.6132 131.84 13.9492V14.8172C131.84 15.1532 131.896 15.4658 132.008 15.7552C132.129 16.0445 132.297 16.2965 132.512 16.5112C132.727 16.7165 132.993 16.8798 133.31 17.0012C133.627 17.1225 133.982 17.1832 134.374 17.1832H134.892ZM136.95 17.1832C137.342 17.1832 137.697 17.1225 138.014 17.0012C138.331 16.8798 138.597 16.7165 138.812 16.5112C139.027 16.2965 139.19 16.0445 139.302 15.7552C139.423 15.4658 139.484 15.1532 139.484 14.8172V13.9492C139.484 13.6132 139.423 13.3005 139.302 13.0112C139.19 12.7218 139.027 12.4745 138.812 12.2692C138.597 12.0545 138.331 11.8865 138.014 11.7652C137.706 11.6438 137.351 11.5832 136.95 11.5832H136.432V17.1832H136.95Z" fill="#E0E2EE"/>
<path d="M121.999 19.2552V9.48322H126.199C127.104 9.48322 127.804 9.74922 128.299 10.2812C128.793 10.8132 129.041 11.5272 129.041 12.4232C129.041 13.3192 128.793 14.0332 128.299 14.5652C127.804 15.0972 127.104 15.3632 126.199 15.3632H123.581V19.2552H121.999ZM123.581 13.9772H126.101C126.502 13.9772 126.815 13.8745 127.039 13.6692C127.263 13.4545 127.375 13.1512 127.375 12.7592V12.0872C127.375 11.6952 127.263 11.3965 127.039 11.1912C126.815 10.9765 126.502 10.8692 126.101 10.8692H123.581V13.9772Z" fill="#171B3D"/>
<path d="M114.821 19.2552V9.48322H116.403V17.8552H120.379V19.2552H114.821Z" fill="#171B3D"/>
<path d="M107.459 13.8512L106.381 11.7792H106.339V19.2552H104.827V9.48322H106.591L109.783 14.8872L110.861 16.9592H110.903V9.48322H112.415V19.2552H110.651L107.459 13.8512Z" fill="#171B3D"/>
<path d="M94.8326 9.48322H96.3726V15.0412L96.2186 17.0572H96.2606L97.2406 15.2512L100.993 9.48322H102.421V19.2552H100.881V13.6972L101.035 11.6812H100.993L100.013 13.4872L96.2606 19.2552H94.8326V9.48322Z" fill="#E0E2EE"/>
<path d="M91.6671 19.2552L90.7851 16.6092H87.1311L86.2771 19.2552H84.6671L87.9991 9.48322H89.9871L93.3191 19.2552H91.6671ZM88.9931 10.9392H88.9231L87.5091 15.2512H90.3931L88.9931 10.9392Z" fill="#E0E2EE"/>
<path d="M118.12 38.6382L117.238 35.9922H113.584L112.73 38.6382H111.12L114.452 28.8661H116.44L119.772 38.6382H118.12ZM115.446 30.3221H115.376L113.962 34.6342H116.846L115.446 30.3221Z" fill="#E0E2EE"/>
<path d="M128.085 38.6382L127.203 35.9922H123.549L122.695 38.6382H121.085L124.417 28.8661H126.405L129.737 38.6382H128.085ZM125.411 30.3221H125.341L123.927 34.6342H126.811L125.411 30.3221Z" fill="#E0E2EE"/>
<path d="M75.5689 9.48322H77.1089V15.0412L76.9549 17.0572H76.9969L77.9769 15.2512L81.7289 9.48322H83.1569V19.2552H81.6169V13.6972L81.7709 11.6812H81.7289L80.7489 13.4872L76.9969 19.2552H75.5689V9.48322Z" fill="#E0E2EE"/>
<path d="M69.3822 19.4232C68.7475 19.4232 68.1688 19.3159 67.6462 19.1012C67.1328 18.8772 66.6895 18.5552 66.3162 18.1352C65.9522 17.7059 65.6675 17.1785 65.4622 16.5532C65.2662 15.9185 65.1682 15.1905 65.1682 14.3692C65.1682 13.5479 65.2662 12.8245 65.4622 12.1992C65.6675 11.5645 65.9522 11.0372 66.3162 10.6172C66.6895 10.1879 67.1328 9.86585 67.6462 9.65119C68.1688 9.42719 68.7475 9.31519 69.3822 9.31519C70.0168 9.31519 70.5908 9.42719 71.1042 9.65119C71.6268 9.86585 72.0702 10.1879 72.4342 10.6172C72.8075 11.0372 73.0922 11.5645 73.2882 12.1992C73.4935 12.8245 73.5962 13.5479 73.5962 14.3692C73.5962 15.1905 73.4935 15.9185 73.2882 16.5532C73.0922 17.1785 72.8075 17.7059 72.4342 18.1352C72.0702 18.5552 71.6268 18.8772 71.1042 19.1012C70.5908 19.3159 70.0168 19.4232 69.3822 19.4232ZM69.3822 18.0092C69.7555 18.0092 70.0962 17.9439 70.4042 17.8132C70.7215 17.6825 70.9875 17.4959 71.2022 17.2532C71.4262 17.0012 71.5988 16.6979 71.7202 16.3432C71.8415 15.9885 71.9022 15.5872 71.9022 15.1392V13.5992C71.9022 13.1512 71.8415 12.7499 71.7202 12.3952C71.5988 12.0405 71.4262 11.7419 71.2022 11.4992C70.9875 11.2472 70.7215 11.0559 70.4042 10.9252C70.0962 10.7945 69.7555 10.7292 69.3822 10.7292C68.9995 10.7292 68.6542 10.7945 68.3462 10.9252C68.0382 11.0559 67.7722 11.2472 67.5482 11.4992C67.3335 11.7419 67.1655 12.0405 67.0442 12.3952C66.9228 12.7499 66.8622 13.1512 66.8622 13.5992V15.1392C66.8622 15.5872 66.9228 15.9885 67.0442 16.3432C67.1655 16.6979 67.3335 17.0012 67.5482 17.2532C67.7722 17.4959 68.0382 17.6825 68.3462 17.8132C68.6542 17.9439 68.9995 18.0092 69.3822 18.0092Z" fill="#E0E2EE"/>
<path d="M54.2169 17.8552H55.2529C55.4395 17.6219 55.6075 17.3465 55.7569 17.0292C55.9155 16.7025 56.0462 16.3245 56.1489 15.8952C56.2609 15.4565 56.3449 14.9572 56.4009 14.3972C56.4569 13.8279 56.4849 13.1792 56.4849 12.4512V9.48322H62.8549V17.8552H64.3109V21.3552H62.8409V19.2552H55.6869V21.3552H54.2169V17.8552ZM61.2729 17.8552V10.8832H58.0109V12.6332C58.0109 13.3332 57.9875 13.9539 57.9409 14.4952C57.9035 15.0365 57.8429 15.5172 57.7589 15.9372C57.6842 16.3479 57.5862 16.7072 57.4649 17.0152C57.3529 17.3139 57.2222 17.5752 57.0729 17.7992V17.8552H61.2729Z" fill="#E0E2EE"/>
<path d="M47.4049 18.4852H46.9149C46.2709 18.4852 45.6876 18.3825 45.1649 18.1772C44.6516 17.9625 44.2129 17.6732 43.8489 17.3092C43.4943 16.9452 43.2189 16.5158 43.0229 16.0212C42.8269 15.5172 42.7289 14.9712 42.7289 14.3832C42.7289 13.8045 42.8223 13.2678 43.0089 12.7732C43.2049 12.2692 43.4849 11.8352 43.8489 11.4712C44.2129 11.0978 44.6516 10.8085 45.1649 10.6032C45.6876 10.3885 46.2709 10.2812 46.9149 10.2812H47.4049V9.02118H49.0009V10.2812H49.4909C50.1349 10.2812 50.7136 10.3885 51.2269 10.6032C51.7496 10.8085 52.1929 11.0978 52.5569 11.4712C52.9209 11.8352 53.1963 12.2692 53.3829 12.7732C53.5789 13.2678 53.6769 13.8045 53.6769 14.3832C53.6769 14.9712 53.5789 15.5172 53.3829 16.0212C53.1869 16.5158 52.9069 16.9452 52.5429 17.3092C52.1883 17.6732 51.7496 17.9625 51.2269 18.1772C50.7136 18.3825 50.1349 18.4852 49.4909 18.4852H49.0009V19.7452H47.4049V18.4852ZM47.4329 17.1832V11.5832H46.9149C46.5136 11.5832 46.1543 11.6438 45.8369 11.7652C45.5289 11.8865 45.2629 12.0545 45.0389 12.2692C44.8243 12.4745 44.6609 12.7218 44.5489 13.0112C44.4369 13.3005 44.3809 13.6132 44.3809 13.9492V14.8172C44.3809 15.1532 44.4369 15.4658 44.5489 15.7552C44.6703 16.0445 44.8383 16.2965 45.0529 16.5112C45.2676 16.7165 45.5336 16.8798 45.8509 17.0012C46.1683 17.1225 46.5229 17.1832 46.9149 17.1832H47.4329ZM49.4909 17.1832C49.8829 17.1832 50.2376 17.1225 50.5549 17.0012C50.8723 16.8798 51.1383 16.7165 51.3529 16.5112C51.5676 16.2965 51.7309 16.0445 51.8429 15.7552C51.9643 15.4658 52.0249 15.1532 52.0249 14.8172V13.9492C52.0249 13.6132 51.9643 13.3005 51.8429 13.0112C51.7309 12.7218 51.5676 12.4745 51.3529 12.2692C51.1383 12.0545 50.8723 11.8865 50.5549 11.7652C50.2469 11.6438 49.8923 11.5832 49.4909 11.5832H48.9729V17.1832H49.4909Z" fill="#E0E2EE"/>
<path d="M30.7115 9.48322H32.2935V13.2352H35.0235C35.9288 13.2352 36.6288 13.5059 37.1235 14.0472C37.6182 14.5792 37.8655 15.3119 37.8655 16.2452C37.8655 17.1785 37.6182 17.9159 37.1235 18.4572C36.6288 18.9892 35.9288 19.2552 35.0235 19.2552H30.7115V9.48322ZM34.9255 17.8692C35.3268 17.8692 35.6395 17.7619 35.8635 17.5472C36.0875 17.3325 36.1995 17.0105 36.1995 16.5812V15.9092C36.1995 15.4799 36.0875 15.1579 35.8635 14.9432C35.6395 14.7285 35.3268 14.6212 34.9255 14.6212H32.2935V17.8692H34.9255ZM39.3215 9.48322H40.9035V19.2552H39.3215V9.48322Z" fill="#E0E2EE"/>
<path d="M19.8051 17.8552H20.8831C21.0698 17.6685 21.2331 17.4399 21.3731 17.1692C21.5131 16.8985 21.6251 16.5532 21.7091 16.1332C21.8024 15.7132 21.8724 15.1999 21.9191 14.5932C21.9658 13.9772 21.9891 13.2305 21.9891 12.3532V9.48322H28.3031V19.2552H26.7211V10.8832H23.5151V12.5352C23.5151 13.4779 23.4824 14.2899 23.4171 14.9712C23.3611 15.6432 23.2771 16.2172 23.1651 16.6932C23.0531 17.1692 22.9131 17.5612 22.7451 17.8692C22.5864 18.1772 22.4091 18.4292 22.2131 18.6252C21.9704 18.8585 21.7091 19.0312 21.4291 19.1432C21.1491 19.2459 20.8084 19.2972 20.4071 19.2972H19.8051V17.8552Z" fill="#E0E2EE"/>
<path d="M17.5792 19.2552L16.6972 16.6092H13.0432L12.1892 19.2552H10.5792L13.9112 9.48322H15.8992L19.2312 19.2552H17.5792ZM14.9052 10.9392H14.8352L13.4212 15.2512H16.3052L14.9052 10.9392Z" fill="#E0E2EE"/>
<path d="M-0.23822 17.8552H0.79778C0.984446 17.6219 1.15245 17.3465 1.30178 17.0292C1.46045 16.7025 1.59111 16.3245 1.69378 15.8952C1.80578 15.4565 1.88978 14.9572 1.94578 14.3972C2.00178 13.8279 2.02978 13.1792 2.02978 12.4512V9.48322H8.39978V17.8552H9.85578V21.3552H8.38578V19.2552H1.23178V21.3552H-0.23822V17.8552ZM6.81778 17.8552V10.8832H3.55578V12.6332C3.55578 13.3332 3.53245 13.9539 3.48578 14.4952C3.44845 15.0365 3.38778 15.5172 3.30378 15.9372C3.22911 16.3479 3.13111 16.7072 3.00978 17.0152C2.89778 17.3139 2.76711 17.5752 2.61778 17.7992V17.8552H6.81778Z" fill="#E0E2EE"/>
</g>
<defs>
<clipPath id="clip0_70_442">
<rect width="238" height="79" fill="white"/>
</clipPath>
</defs>
</svg>
